#define Auml_width 8
#define Auml_height 16
static unsigned char Auml_bits[] = {
   0x00, 0x00, 0x63, 0x00, 0x08, 0x1c, 0x36, 0x63, 0x63, 0x7f, 0x63, 0x63,
   0x63, 0x00, 0x00, 0x00 };
