#define noname_width 16
#define noname_height 16
static char noname_bits[] = {
0x00, 0x00, 
0xFE, 0x7F, 
0x80, 0x00, 
0x80, 0x00, 
0xFC, 0x3F, 
0x80, 0x00, 
0x80, 0x00, 
0x80, 0x00, 
0xFF, 0xFF, 
0x40, 0x00, 
0x60, 0x08, 
0x20, 0x18, 
0x30, 0x10, 
0x10, 0x3F, 
0xF8, 0x21, 
0x0E, 0x60, 
};