#define noname_width 16
#define noname_height 16
static char noname_bits[] = {
0x10, 0x04, 
0x18, 0x04, 
0x0C, 0x04, 
0x04, 0x04, 
0x06, 0x04, 
0x43, 0x04, 
0x66, 0x04, 
0x2C, 0x04, 
0x30, 0x04, 
0x18, 0x04, 
0x48, 0x04, 
0xCC, 0x04, 
0x84, 0x04, 
0xFE, 0x85, 
0x03, 0xCD, 
0x00, 0x78, 
};