#define noname_width 16
#define noname_height 16
static char noname_bits[] = {
0x10, 0x04, 
0x10, 0x04, 
0xD8, 0xFF, 
0x48, 0x80, 
0x4C, 0x80, 
0x04, 0x3F, 
0x06, 0x21, 
0x05, 0x21, 
0x04, 0x3F, 
0x04, 0x01, 
0x04, 0x01, 
0x04, 0x7F, 
0x04, 0x41, 
0x04, 0x41, 
0x04, 0x41, 
0x04, 0x7F, 
};