#define noname_width 16
#define noname_height 16
static char noname_bits[] = {
0x90, 0x20, 
0x90, 0x31, 
0x18, 0x11, 
0xE8, 0xFF, 
0x0C, 0x00, 
0xC4, 0x43, 
0x46, 0x4A, 
0x45, 0x4A, 
0xC4, 0x4A, 
0x44, 0x4B, 
0x44, 0x4A, 
0xC4, 0x4A, 
0x44, 0x43, 
0x44, 0x42, 
0x44, 0x42, 
0x44, 0x73, 
};