#define noname_width 16
#define noname_height 16
static char noname_bits[] = {
0x08, 0x00, 
0xF8, 0xFF, 
0x08, 0x02, 
0x0C, 0x03, 
0x04, 0x01, 
0xE6, 0x7F, 
0x26, 0x49, 
0x25, 0x49, 
0x24, 0x4F, 
0x24, 0x49, 
0x24, 0x49, 
0x24, 0x4F, 
0x24, 0x49, 
0x24, 0x49, 
0x24, 0x49, 
0xE4, 0x7F, 
};