#define noname_width 16
#define noname_height 16
static char noname_bits[] = {
0x90, 0x20, 
0x10, 0x11, 
0xD8, 0x7F, 
0x08, 0x04, 
0x0C, 0x04, 
0x84, 0x3F, 
0x06, 0x04, 
0x05, 0x04, 
0xC4, 0x7F, 
0x04, 0x02, 
0x04, 0x01, 
0x84, 0x7F, 
0xC4, 0x08, 
0x34, 0x08, 
0x04, 0x08, 
0x84, 0xFF, 
};