#define noname_width 16
#define noname_height 16
static char noname_bits[] = {
0x10, 0x04, 
0x50, 0x44, 
0x58, 0x44, 
0xC8, 0x7F, 
0x0C, 0x00, 
0xC4, 0x7B, 
0x46, 0x4A, 
0x45, 0x4A, 
0xC4, 0x5A, 
0x44, 0x6B, 
0x44, 0x4A, 
0xC4, 0x5A, 
0x44, 0x6B, 
0x44, 0x4A, 
0x44, 0x4B, 
0x24, 0x64, 
};