#define noname_width 16
#define noname_height 16
static char noname_bits[] = {
0x00, 0x40, 
0xFF, 0x49, 
0x44, 0x48, 
0x44, 0x48, 
0x7C, 0x48, 
0x44, 0x48, 
0x44, 0x48, 
0x44, 0x48, 
0x7C, 0x48, 
0x44, 0x48, 
0x44, 0x48, 
0x44, 0x40, 
0x7C, 0x40, 
0x47, 0x40, 
0x40, 0x40, 
0x40, 0x70, 
};