#define noname_width 16
#define noname_height 16
static char noname_bits[] = {
0xFE, 0x7F, 
0x02, 0x00, 
0xFA, 0x3E, 
0x8A, 0x22, 
0xFA, 0x3E, 
0x02, 0x00, 
0xF2, 0x1F, 
0x12, 0x11, 
0xF2, 0x1F, 
0x12, 0x11, 
0xF2, 0x1F, 
0x02, 0x01, 
0xFA, 0x3F, 
0x02, 0x01, 
0xFE, 0x7F, 
0x00, 0x00, 
};