#define noname_width 16
#define noname_height 16
static char noname_bits[] = {
0x00, 0x00, 
0xFF, 0xFF, 
0x04, 0x02, 
0x04, 0x07, 
0x84, 0x0D, 
0xC4, 0x18, 
0x74, 0x70, 
0x84, 0x0F, 
0x04, 0x00, 
0xC4, 0x1F, 
0x44, 0x10, 
0x44, 0x10, 
0xC4, 0x1F, 
0x0C, 0x00, 
0xF8, 0xFF, 
0x00, 0x00, 
};