#define noname_width 16
#define noname_height 16
static char noname_bits[] = {
0x00, 0x00, 
0xFF, 0x1F, 
0x00, 0x10, 
0x20, 0x10, 
0x20, 0x10, 
0x20, 0x10, 
0x20, 0x10, 
0x20, 0x10, 
0xFF, 0x17, 
0x20, 0x10, 
0x20, 0x10, 
0x20, 0x10, 
0x20, 0x30, 
0x20, 0xA0, 
0x20, 0xE0, 
0x00, 0x40, 
};