#define noname_width 16
#define noname_height 16
static char noname_bits[] = {
0x00, 0x00, 
0xFE, 0x7E, 
0x82, 0x44, 
0x82, 0x44, 
0xFE, 0x44, 
0x02, 0x44, 
0x02, 0x6C, 
0xFA, 0x28, 
0x02, 0x28, 
0xFA, 0x38, 
0x22, 0x10, 
0xAA, 0x10, 
0xAB, 0x38, 
0xA9, 0x28, 
0xA5, 0x6C, 
0x30, 0xC6, 
};