#define noname_width 16
#define noname_height 16
static char noname_bits[] = {
0x00, 0x00, 
0x80, 0x3F, 
0x9E, 0x20, 
0x92, 0x20, 
0x92, 0x3F, 
0x12, 0x00, 
0xD2, 0x7F, 
0x52, 0x44, 
0x52, 0x44, 
0x52, 0x44, 
0xD2, 0x7F, 
0x5E, 0x00, 
0x40, 0x00, 
0x40, 0x80, 
0xC0, 0xC0, 
0x80, 0x7F, 
};