#define noname_width 16
#define noname_height 16
static char noname_bits[] = {
0x00, 0x00, 
0xC0, 0x7F, 
0x5F, 0x40, 
0x51, 0x40, 
0xD1, 0x7F, 
0x51, 0x00, 
0x51, 0x7F, 
0x51, 0x04, 
0x51, 0x22, 
0x51, 0x7F, 
0x51, 0x48, 
0x5F, 0x08, 
0x60, 0x7F, 
0x20, 0x08, 
0x30, 0x08, 
0x80, 0xFF, 
};