#define noname_width 16
#define noname_height 16
static char noname_bits[] = {
0x80, 0x08, 
0xF6, 0xFF, 
0x0C, 0x02, 
0xC0, 0x3F, 
0x46, 0x20, 
0xCC, 0x3F, 
0x40, 0x20, 
0xCF, 0x3F, 
0x48, 0x20, 
0xCC, 0x3F, 
0x16, 0x00, 
0xE3, 0xFF, 
0x00, 0x00, 
0xFC, 0x3F, 
0x04, 0x20, 
0xFC, 0x3F, 
};