#define noname_width 16
#define noname_height 16
static char noname_bits[] = {
0x04, 0x00, 
0xC4, 0x7F, 
0x44, 0x40, 
0x44, 0x40, 
0x5F, 0x40, 
0x44, 0x5F, 
0x44, 0x51, 
0x44, 0x51, 
0x44, 0x51, 
0x44, 0x51, 
0x5C, 0x5F, 
0x47, 0x40, 
0x40, 0x40, 
0x40, 0x40, 
0x40, 0x40, 
0x40, 0x70, 
};