#define noname_width 16
#define noname_height 16
static char noname_bits[] = {
0x00, 0x50, 
0x04, 0x90, 
0x04, 0x90, 
0xC4, 0xFF, 
0x44, 0x10, 
0x5F, 0x17, 
0x44, 0x50, 
0x44, 0x57, 
0x44, 0x55, 
0x44, 0x55, 
0x5C, 0x75, 
0x46, 0x27, 
0x43, 0xB0, 
0x60, 0xB8, 
0x20, 0xEC, 
0x30, 0x46, 
};