#define noname_width 16
#define noname_height 16
static char noname_bits[] = {
0xFE, 0x41, 
0x10, 0x44, 
0xF8, 0x44, 
0x8C, 0x44, 
0xD6, 0x44, 
0x60, 0x44, 
0x30, 0x40, 
0x1E, 0x70, 
0x40, 0x00, 
0xFF, 0xFF, 
0x20, 0x08, 
0x10, 0x0C, 
0xF8, 0x06, 
0x80, 0x03, 
0xE0, 0x1E, 
0x3E, 0x70, 
};