#define noname_width 16
#define noname_height 16
static char noname_bits[] = {
0x08, 0x00, 
0x88, 0xFF, 
0x08, 0x12, 
0x08, 0x12, 
0x3F, 0x12, 
0xA4, 0x73, 
0xA4, 0x40, 
0xA4, 0x40, 
0xA6, 0x40, 
0xB2, 0x73, 
0x12, 0x12, 
0x3F, 0x12, 
0x28, 0x12, 
0x0C, 0x12, 
0x86, 0xFF, 
0x03, 0x00, 
};