#define noname_width 16
#define noname_height 16
static char noname_bits[] = {
0x80, 0x00, 
0x80, 0x00, 
0xFE, 0x7F, 
0x22, 0x40, 
0xE2, 0x47, 
0x10, 0x02, 
0x08, 0x01, 
0xFC, 0x1F, 
0x48, 0x12, 
0x68, 0x12, 
0x38, 0x1E, 
0x08, 0x10, 
0xFE, 0x7F, 
0x00, 0x00, 
0x38, 0x1C, 
0x0E, 0x70, 
};