#define noname_width 16
#define noname_height 16
static char noname_bits[] = {
0x00, 0x01, 
0x00, 0x01, 
0xFC, 0xFF, 
0x24, 0x08, 
0x24, 0x08, 
0x24, 0xFF, 
0xF4, 0x08, 
0x24, 0x08, 
0x24, 0x7F, 
0x24, 0x62, 
0xE4, 0x22, 
0x34, 0x36, 
0x26, 0x1C, 
0x22, 0x1C, 
0x23, 0x36, 
0x30, 0xE3, 
};