#define noname_width 16
#define noname_height 16
static char noname_bits[] = {
0x10, 0x08, 
0x10, 0x08, 
0xFE, 0x7F, 
0x10, 0x08, 
0xF0, 0x0F, 
0x10, 0x08, 
0xF0, 0x0F, 
0x10, 0x08, 
0xFF, 0xFF, 
0x10, 0x08, 
0x8C, 0x31, 
0x23, 0xC3, 
0x28, 0x32, 
0x28, 0x60, 
0x6C, 0x10, 
0xC6, 0x1F, 
};