#define noname_width 16
#define noname_height 16
static char noname_bits[] = {
0x08, 0x04, 
0x08, 0x04, 
0x08, 0x04, 
0x08, 0x04, 
0xBF, 0x7F, 
0x08, 0x44, 
0x08, 0x44, 
0x08, 0x44, 
0x38, 0x44, 
0x0F, 0x46, 
0x08, 0x42, 
0x08, 0x42, 
0x08, 0x63, 
0x08, 0x21, 
0x88, 0x21, 
0xCE, 0x38, 
};