#define noname_width 16
#define noname_height 16
static char noname_bits[] = {
0x84, 0x08, 
0x84, 0x04, 
0xC4, 0xFF, 
0x5F, 0x04, 
0xE4, 0x7F, 
0x54, 0x04, 
0xC4, 0x7F, 
0x5C, 0x04, 
0xC7, 0xFF, 
0x04, 0x00, 
0xE4, 0x79, 
0x24, 0x49, 
0x24, 0x49, 
0x24, 0x4F, 
0x24, 0x40, 
0x26, 0x70, 
};