#define noname_width 16
#define noname_height 16
static char noname_bits[] = {
0x08, 0x01, 
0x08, 0x01, 
0x08, 0x01, 
0xBF, 0xFF, 
0xC4, 0x00, 
0x44, 0x7F, 
0x3C, 0x41, 
0x24, 0x41, 
0x24, 0x7F, 
0x24, 0x05, 
0x24, 0x65, 
0x24, 0x3D, 
0x24, 0x05, 
0xA6, 0x85, 
0xA2, 0xCC, 
0x33, 0x78, 
};