#define noname_width 16
#define noname_height 16
static char noname_bits[] = {
0xE0, 0xFB, 
0x00, 0x00, 
0xEF, 0xFB, 
0x29, 0x8A, 
0xA9, 0xAA, 
0x09, 0x04, 
0xE9, 0xFF, 
0x2F, 0x09, 
0xE9, 0x7F, 
0x29, 0x49, 
0xE9, 0x7F, 
0xA9, 0x08, 
0xAF, 0x7B, 
0xA0, 0x08, 
0x90, 0x8B, 
0xC0, 0xF0, 
};