#define noname_width 16
#define noname_height 16
static char noname_bits[] = {
0x08, 0x08, 
0x08, 0x08, 
0x88, 0xFF, 
0x3F, 0x00, 
0x08, 0x7F, 
0x08, 0x41, 
0x1C, 0x41, 
0x2C, 0x7F, 
0x0C, 0x00, 
0x0A, 0x7F, 
0x0A, 0x20, 
0x09, 0x10, 
0x08, 0x08, 
0x08, 0x08, 
0x08, 0x08, 
0x08, 0x0E, 
};