#define noname_width 16
#define noname_height 16
static char noname_bits[] = {
0x08, 0x04, 
0x08, 0x7C, 
0x08, 0x04, 
0xBF, 0xFF, 
0x88, 0x84, 
0x88, 0x7F, 
0x9C, 0x04, 
0xAC, 0x78, 
0x8C, 0x00, 
0x8A, 0x7E, 
0x8A, 0x42, 
0x89, 0x7E, 
0x88, 0x42, 
0x48, 0x7E, 
0x48, 0x42, 
0x08, 0xFF, 
};