#define noname_width 16
#define noname_height 16
static char noname_bits[] = {
0x08, 0x00, 
0xC8, 0x0F, 
0x88, 0xF4, 
0xBF, 0x97, 
0x88, 0x94, 
0x88, 0x97, 
0x9C, 0x94, 
0xAC, 0x94, 
0xCC, 0xF7, 
0x0A, 0x04, 
0x0A, 0x38, 
0x89, 0x0F, 
0x08, 0x04, 
0x88, 0x3F, 
0x08, 0x04, 
0xC8, 0xFF, 
};