#define noname_width 16
#define noname_height 16
static char noname_bits[] = {
0x04, 0x10, 
0xC4, 0x53, 
0x44, 0xD2, 
0xDF, 0x93, 
0x04, 0x10, 
0xE4, 0xFB, 
0x44, 0x12, 
0xCE, 0x13, 
0x56, 0x52, 
0xD5, 0x53, 
0x45, 0x72, 
0x44, 0x26, 
0xC4, 0x33, 
0x64, 0xB2, 
0x04, 0xEA, 
0x04, 0x42, 
};