#define noname_width 16
#define noname_height 16
static char noname_bits[] = {
0x00, 0x04, 
0x06, 0x04, 
0x0C, 0x04, 
0xE8, 0xFF, 
0x00, 0x02, 
0x03, 0x02, 
0x06, 0x02, 
0x04, 0x7E, 
0x00, 0x42, 
0x08, 0x42, 
0x08, 0x42, 
0x0C, 0x43, 
0x04, 0x61, 
0x86, 0x21, 
0xC2, 0x20, 
0x63, 0x38, 
};