#define noname_width 16
#define noname_height 16
static char noname_bits[] = {
0x00, 0x00, 
0x86, 0x3F, 
0x8C, 0x20, 
0x88, 0x3F, 
0x80, 0x20, 
0x83, 0x20, 
0x86, 0x3F, 
0x04, 0x00, 
0xE0, 0xFF, 
0x08, 0x04, 
0x88, 0x04, 
0x8C, 0x7C, 
0x84, 0x04, 
0xC6, 0x05, 
0x62, 0x07, 
0x33, 0xFC, 
};