#define noname_width 16
#define noname_height 16
static char noname_bits[] = {
0x00, 0x04, 
0x86, 0x7C, 
0x8C, 0x04, 
0xE8, 0xFF, 
0x00, 0x50, 
0x03, 0x90, 
0xE6, 0xFF, 
0x24, 0x20, 
0xA0, 0x2F, 
0x28, 0x22, 
0xA8, 0xAA, 
0xEC, 0x7A, 
0x24, 0x26, 
0xA6, 0xB1, 
0x22, 0xA8, 
0x13, 0xC6, 
};