#define noname_width 16
#define noname_height 16
static char noname_bits[] = {
0x00, 0x00, 
0xF8, 0x1F, 
0x08, 0x10, 
0x08, 0x10, 
0xF8, 0x1F, 
0x08, 0x10, 
0x08, 0x10, 
0xF8, 0x1F, 
0x80, 0x00, 
0x88, 0x20, 
0xC8, 0x31, 
0x4C, 0x19, 
0x64, 0x03, 
0x30, 0x06, 
0x1C, 0x1C, 
0x07, 0xF0, 
};