#define noname_width 16
#define noname_height 16
static char noname_bits[] = {
0x24, 0x24, 
0xFE, 0xFE, 
0x13, 0x13, 
0x7E, 0x7E, 
0x12, 0x12, 
0x7E, 0x7E, 
0x12, 0x12, 
0xFE, 0xFE, 
0x80, 0x00, 
0x88, 0x00, 
0xFC, 0x1F, 
0x84, 0x00, 
0x80, 0x00, 
0xFF, 0xFF, 
0x80, 0x00, 
0x80, 0x00, 
};