#define noname_width 16
#define noname_height 16
static char noname_bits[] = {
0x10, 0x04, 
0x11, 0x04, 
0x0A, 0x04, 
0x04, 0x04, 
0xE4, 0xFF, 
0x0A, 0x15, 
0x09, 0x15, 
0x08, 0x15, 
0x8C, 0x35, 
0x8C, 0x24, 
0xCA, 0x64, 
0x49, 0x44, 
0x68, 0xC4, 
0x08, 0x04, 
0x0C, 0x04, 
0x07, 0x04, 
};