#define noname_width 16
#define noname_height 16
static char noname_bits[] = {
0x10, 0x60, 
0x11, 0x3C, 
0xEA, 0x27, 
0x84, 0x62, 
0x44, 0x44, 
0xCA, 0x7F, 
0x09, 0x01, 
0xE8, 0xFF, 
0x0C, 0x01, 
0x0C, 0x3F, 
0x8A, 0x21, 
0xC9, 0x30, 
0x68, 0x1B, 
0x08, 0x0E, 
0x8C, 0x3B, 
0xE7, 0xE0, 
};