#define noname_width 16
#define noname_height 16
static char noname_bits[] = {
0x00, 0x04, 
0x00, 0x0E, 
0x1F, 0x0A, 
0x04, 0x1B, 
0x84, 0x31, 
0xC4, 0x60, 
0x64, 0xDF, 
0x1F, 0x00, 
0x04, 0x00, 
0x84, 0x3F, 
0x04, 0x20, 
0x04, 0x30, 
0x1C, 0x10, 
0x07, 0x18, 
0x00, 0x08, 
0x00, 0x0C, 
};