#define noname_width 16
#define noname_height 16
static char noname_bits[] = {
0x00, 0x01, 
0x00, 0x01, 
0x1F, 0x01, 
0x84, 0xFF, 
0x84, 0x20, 
0xC4, 0x20, 
0x04, 0x31, 
0x1F, 0x11, 
0x04, 0x1B, 
0x04, 0x0A, 
0x04, 0x0E, 
0x04, 0x04, 
0x1C, 0x0E, 
0x07, 0x1B, 
0x80, 0x31, 
0xC0, 0xE0, 
};