#define noname_width 16
#define noname_height 16
static char noname_bits[] = {
0x00, 0x04, 
0x80, 0x44, 
0x9F, 0x65, 
0x04, 0x25, 
0x04, 0x25, 
0x04, 0x04, 
0x04, 0x04, 
0xDF, 0xFF, 
0x04, 0x12, 
0x04, 0x12, 
0x04, 0x12, 
0x04, 0x12, 
0x1C, 0x13, 
0x07, 0x91, 
0x80, 0x91, 
0xC0, 0xE0, 
};