#define noname_width 16
#define noname_height 16
static char noname_bits[] = {
0x00, 0x04, 
0x00, 0x04, 
0xDF, 0x7F, 
0x44, 0x40, 
0x44, 0x40, 
0x84, 0x00, 
0x84, 0x7B, 
0x9F, 0x4A, 
0xC4, 0x4A, 
0x64, 0x4A, 
0x84, 0x4B, 
0x04, 0x69, 
0x9C, 0x09, 
0x87, 0x88, 
0xC0, 0xC8, 
0x60, 0x70, 
};