#define noname_width 16
#define noname_height 16
static char noname_bits[] = {
0x80, 0x00, 
0x80, 0x00, 
0xDF, 0xFF, 
0xE4, 0x2A, 
0x84, 0x2A, 
0x84, 0x2A, 
0xE4, 0xFF, 
0x9F, 0x2A, 
0x84, 0x2A, 
0x84, 0x2A, 
0xE4, 0xFF, 
0x04, 0x00, 
0x1C, 0x00, 
0x87, 0x2A, 
0xC0, 0x6A, 
0x60, 0xCA, 
};