#define noname_width 16
#define noname_height 16
static char noname_bits[] = {
0x00, 0x00, 
0x80, 0x7F, 
0x1F, 0x22, 
0x04, 0x14, 
0xC4, 0xFF, 
0x04, 0x4A, 
0x04, 0x29, 
0x9F, 0x0C, 
0xC4, 0xFF, 
0x44, 0x92, 
0x44, 0x91, 
0xC4, 0xFE, 
0x5C, 0x92, 
0x47, 0x92, 
0x40, 0x9E, 
0x40, 0xC0, 
};