#define noname_width 16
#define noname_height 16
static char noname_bits[] = {
0xE0, 0xFB, 
0x20, 0x8A, 
0xFF, 0xFB, 
0x24, 0x8A, 
0xE4, 0xFB, 
0x24, 0x84, 
0xA4, 0xBF, 
0x3F, 0x84, 
0xA4, 0xBF, 
0xA4, 0xA4, 
0xA4, 0xB5, 
0xA4, 0xAE, 
0xBC, 0xBF, 
0x27, 0x95, 
0xA0, 0xA4, 
0x20, 0xC4, 
};