#define noname_width 16
#define noname_height 16
static char noname_bits[] = {
0x00, 0x00, 
0xFF, 0xFF, 
0x40, 0x02, 
0x7E, 0x7E, 
0x42, 0x42, 
0x42, 0x42, 
0x7E, 0x7E, 
0x40, 0x02, 
0xFC, 0x3F, 
0x84, 0x20, 
0x84, 0x20, 
0xFC, 0x3F, 
0x84, 0x20, 
0x84, 0x20, 
0xFC, 0x3F, 
0x00, 0x00, 
};