#define noname_width 16
#define noname_height 16
static char noname_bits[] = {
0xFE, 0x3D, 
0x12, 0x24, 
0xF2, 0xE4, 
0x2A, 0x02, 
0xFE, 0x7D, 
0x52, 0x28, 
0x8A, 0x10, 
0xFE, 0x6D, 
0x00, 0x00, 
0xF8, 0x1F, 
0x08, 0x10, 
0xF8, 0x1F, 
0x08, 0x10, 
0xF8, 0x1F, 
0x08, 0x10, 
0xF8, 0x1F, 
};