#define noname_width 16
#define noname_height 16
static char noname_bits[] = {
0x04, 0x3A, 
0x04, 0x63, 
0xBE, 0xC1, 
0x0B, 0x00, 
0x88, 0xFF, 
0x88, 0xAA, 
0xFF, 0x88, 
0x88, 0xFF, 
0x08, 0x00, 
0x08, 0x7F, 
0x1C, 0x41, 
0x34, 0x41, 
0x26, 0x7F, 
0x03, 0x41, 
0x00, 0x41, 
0x00, 0x7F, 
};