#define noname_width 16
#define noname_height 16
static char noname_bits[] = {
0x04, 0x22, 
0x84, 0xFF, 
0x3E, 0x22, 
0x0B, 0x11, 
0x88, 0xFF, 
0x48, 0x09, 
0x7F, 0x7F, 
0x08, 0x09, 
0x08, 0x7F, 
0x08, 0x09, 
0x1C, 0xFF, 
0x36, 0x00, 
0x23, 0x7F, 
0x00, 0x32, 
0x00, 0x1C, 
0x80, 0xE7, 
};