#define noname_width 16
#define noname_height 16
static char noname_bits[] = {
0x10, 0x00, 
0x10, 0xFE, 
0xFF, 0x41, 
0x48, 0x28, 
0x24, 0x10, 
0x18, 0x28, 
0x28, 0x44, 
0x44, 0x82, 
0xFF, 0xFF, 
0x40, 0x00, 
0x20, 0x00, 
0xF0, 0x3F, 
0x18, 0x20, 
0x16, 0x20, 
0x10, 0x20, 
0xF0, 0x3F, 
};