#define noname_width 16
#define noname_height 16
static char noname_bits[] = {
0x20, 0x02, 
0x38, 0x02, 
0x0F, 0x02, 
0x08, 0x02, 
0x88, 0x1F, 
0x3F, 0x12, 
0x08, 0x12, 
0x08, 0x12, 
0x9C, 0x12, 
0x2C, 0x13, 
0x2A, 0x12, 
0x0A, 0x17, 
0x09, 0x11, 
0x08, 0x91, 
0x88, 0x91, 
0xC8, 0xE0, 
};