#define noname_width 16
#define noname_height 16
static char noname_bits[] = {
0x20, 0x30, 
0x38, 0x1C, 
0x0F, 0x07, 
0x08, 0x04, 
0x08, 0x04, 
0x3F, 0x3F, 
0x08, 0x04, 
0x08, 0x04, 
0x1C, 0x04, 
0xAC, 0xFF, 
0x2A, 0x04, 
0x0A, 0x04, 
0x09, 0x04, 
0x08, 0x84, 
0x08, 0xCC, 
0x08, 0x78, 
};