#define noname_width 16
#define noname_height 16
static char noname_bits[] = {
0x90, 0x00, 
0x9C, 0xFB, 
0xE7, 0x90, 
0x84, 0x90, 
0x84, 0x93, 
0xDF, 0x90, 
0x84, 0x98, 
0x84, 0x8B, 
0xEE, 0xEC, 
0x96, 0x00, 
0x05, 0x02, 
0xE5, 0xFF, 
0x04, 0x11, 
0x84, 0x31, 
0xC4, 0x60, 
0x64, 0xC0, 
};