#define noname_width 16
#define noname_height 16
static char noname_bits[] = {
0x10, 0x04, 
0x1C, 0x04, 
0xE7, 0xFF, 
0x04, 0x0A, 
0xE4, 0xF5, 
0x5F, 0x55, 
0x44, 0x55, 
0xA4, 0xB5, 
0x0E, 0x00, 
0x56, 0x40, 
0xC5, 0x7F, 
0x45, 0x40, 
0xC4, 0x7F, 
0x44, 0x40, 
0x64, 0x40, 
0x24, 0x40, 
};