#define noname_width 16
#define noname_height 16
static char noname_bits[] = {
0x08, 0x02, 
0x08, 0x02, 
0x7C, 0xFF, 
0x96, 0x09, 
0x20, 0x10, 
0xF0, 0x0F, 
0x18, 0x0C, 
0x6E, 0x06, 
0xC0, 0x03, 
0x78, 0x1E, 
0x0F, 0xF0, 
0x00, 0x00, 
0xF8, 0x1F, 
0x08, 0x10, 
0x08, 0x10, 
0xF8, 0x1F, 
};