#define noname_width 16
#define noname_height 16
static char noname_bits[] = {
0x04, 0x02, 
0x7E, 0xFF, 
0x93, 0x09, 
0x20, 0x10, 
0x08, 0x04, 
0x08, 0x0E, 
0x08, 0x1B, 
0xBF, 0x31, 
0xC8, 0xEE, 
0x08, 0x00, 
0xF8, 0x7B, 
0x4F, 0x4A, 
0xC8, 0x7B, 
0x88, 0x20, 
0x48, 0x51, 
0x2E, 0x8A, 
};