#define noname_width 16
#define noname_height 16
static char noname_bits[] = {
0x04, 0x02, 
0x7E, 0xFF, 
0x93, 0x09, 
0x7E, 0x7E, 
0x42, 0x42, 
0x7E, 0x7E, 
0x42, 0x42, 
0x7E, 0x7E, 
0x82, 0x40, 
0xFA, 0x5F, 
0x82, 0x40, 
0xF2, 0x4F, 
0xD2, 0x4A, 
0xF2, 0x4F, 
0xA2, 0x42, 
0x9A, 0x6C, 
};