#define noname_width 16
#define noname_height 16
static char noname_bits[] = {
0x84, 0x00, 
0x95, 0x7E, 
0x95, 0x40, 
0xC4, 0x40, 
0x44, 0xFF, 
0x5F, 0x02, 
0x64, 0x02, 
0x44, 0x7F, 
0xCE, 0x08, 
0x56, 0x08, 
0xD5, 0xFF, 
0x45, 0x08, 
0x44, 0x1C, 
0x44, 0x14, 
0x44, 0x36, 
0x44, 0xE3, 
};