#define noname_width 16
#define noname_height 16
static char noname_bits[] = {
0x08, 0x00, 
0x8C, 0x7F, 
0x86, 0x44, 
0xA3, 0x44, 
0xB6, 0x44, 
0x98, 0x44, 
0x8C, 0x44, 
0xA6, 0x7F, 
0xBF, 0x00, 
0xA8, 0x00, 
0x88, 0x00, 
0xAA, 0x00, 
0xAA, 0x80, 
0xAB, 0xC1, 
0x09, 0x7F, 
0x08, 0x00, 
};