#define noname_width 16
#define noname_height 16
static char noname_bits[] = {
0x08, 0x00, 
0x0C, 0x7F, 
0x06, 0x41, 
0x23, 0x41, 
0x36, 0x7F, 
0x18, 0x00, 
0x0C, 0x7F, 
0x26, 0x41, 
0x7F, 0x7F, 
0x48, 0x41, 
0x08, 0x7F, 
0x2A, 0x41, 
0x6A, 0x7F, 
0x4B, 0x22, 
0x09, 0x63, 
0x88, 0xC1, 
};