#define noname_width 16
#define noname_height 16
static char noname_bits[] = {
0x10, 0x08, 
0xFE, 0x08, 
0x10, 0xFC, 
0xFF, 0x47, 
0x08, 0x6C, 
0xF8, 0x38, 
0x8C, 0x2C, 
0xC6, 0x66, 
0xFF, 0xFF, 
0x10, 0x08, 
0xF0, 0x0F, 
0x10, 0x08, 
0xF0, 0x0F, 
0x10, 0xF8, 
0xFF, 0x0F, 
0x00, 0x08, 
};