#define noname_width 16
#define noname_height 16
static char noname_bits[] = {
0x00, 0x04, 
0x1E, 0x0E, 
0x12, 0x0A, 
0x12, 0x1B, 
0x92, 0x31, 
0xDE, 0x64, 
0x72, 0xC6, 
0x12, 0x13, 
0x92, 0x19, 
0x1E, 0x0C, 
0x12, 0x46, 
0x92, 0x63, 
0x12, 0x30, 
0x12, 0x18, 
0x13, 0x0E, 
0x99, 0x03, 
};