#define noname_width 16
#define noname_height 16
static char noname_bits[] = {
0x10, 0x08, 
0x10, 0x08, 
0xFF, 0xFF, 
0x10, 0x08, 
0x80, 0x00, 
0xFF, 0xFF, 
0x80, 0x00, 
0xFE, 0x3F, 
0x80, 0x20, 
0xFC, 0x3F, 
0x84, 0x00, 
0xFC, 0x7F, 
0x40, 0x42, 
0x60, 0x66, 
0x38, 0x1C, 
0x0F, 0xF0, 
};