#define noname_width 16
#define noname_height 16
static char noname_bits[] = {
0x20, 0x04, 
0x20, 0x04, 
0xFF, 0xFF, 
0x20, 0x04, 
0x28, 0x04, 
0x0C, 0x00, 
0x26, 0x7F, 
0x34, 0x08, 
0x18, 0x08, 
0x4C, 0x08, 
0x7F, 0x08, 
0x48, 0x08, 
0x2A, 0x08, 
0x4A, 0x08, 
0x8B, 0xFF, 
0x09, 0x00, 
};