#define noname_width 16
#define noname_height 16
static char noname_bits[] = {
0x10, 0x08, 
0xFF, 0xFF, 
0x10, 0x09, 
0xFC, 0xFF, 
0x44, 0x04, 
0xFC, 0x7F, 
0x44, 0x44, 
0xFC, 0x7F, 
0x24, 0x04, 
0xE6, 0x3D, 
0x22, 0x84, 
0xFB, 0x79, 
0x80, 0x00, 
0xFC, 0x3F, 
0x80, 0x00, 
0xFF, 0xFF, 
};