#define noname_width 16
#define noname_height 16
static char noname_bits[] = {
0x20, 0x04, 
0xFF, 0xFF, 
0x20, 0x04, 
0x00, 0x00, 
0xC4, 0x7F, 
0x44, 0x49, 
0xC4, 0x7F, 
0x1F, 0x04, 
0xC4, 0x7F, 
0x04, 0x04, 
0xE4, 0xFF, 
0x1C, 0x11, 
0xC7, 0x7F, 
0x04, 0x04, 
0x84, 0x3F, 
0x06, 0x04, 
};