#define noname_width 16
#define noname_height 16
static char noname_bits[] = {
0x20, 0x08, 
0xAE, 0x78, 
0xA0, 0x08, 
0x20, 0xFF, 
0xFF, 0x81, 
0x20, 0x09, 
0x28, 0x79, 
0x2A, 0x0F, 
0x3A, 0x89, 
0x2A, 0xF1, 
0x2A, 0x01, 
0x2A, 0x25, 
0x2A, 0x25, 
0xBE, 0xA5, 
0xA3, 0xA4, 
0x40, 0xC2, 
};