#define noname_width 16
#define noname_height 16
static char noname_bits[] = {
0x04, 0x04, 
0x04, 0x04, 
0x04, 0x04, 
0xFF, 0xFF, 
0x25, 0x04, 
0x25, 0x04, 
0xA5, 0x3F, 
0x25, 0x21, 
0x3F, 0x31, 
0x04, 0x1B, 
0x04, 0x0E, 
0x14, 0x04, 
0x14, 0x0E, 
0x3E, 0x1B, 
0xA3, 0x31, 
0xC0, 0xE0, 
};