#define noname_width 16
#define noname_height 16
static char noname_bits[] = {
0x04, 0x12, 
0x04, 0x12, 
0x84, 0x7F, 
0x3F, 0x12, 
0x25, 0x12, 
0x25, 0x12, 
0xE5, 0xFF, 
0x25, 0x00, 
0x3F, 0x3F, 
0x04, 0x21, 
0x04, 0x21, 
0x14, 0x3F, 
0x14, 0x21, 
0x3E, 0x21, 
0x23, 0x21, 
0x00, 0x3F, 
};