#define noname_width 16
#define noname_height 16
static char noname_bits[] = {
0x04, 0x06, 
0x84, 0x73, 
0x84, 0x40, 
0xBF, 0x40, 
0xA5, 0x73, 
0xA5, 0x40, 
0xA5, 0x40, 
0xA5, 0x7F, 
0x3F, 0x12, 
0x04, 0x12, 
0x04, 0x12, 
0x14, 0x12, 
0x14, 0x13, 
0x3E, 0x91, 
0xA3, 0x91, 
0xC0, 0xE0, 
};