#define noname_width 16
#define noname_height 16
static char noname_bits[] = {
0x04, 0x04, 
0x04, 0x04, 
0xE4, 0xFF, 
0x1F, 0x0A, 
0xF5, 0xF5, 
0x55, 0x55, 
0x55, 0x55, 
0xB5, 0xB5, 
0x15, 0x00, 
0x9F, 0x40, 
0x84, 0x7F, 
0x94, 0x40, 
0x94, 0x7F, 
0x9E, 0x40, 
0xD3, 0x40, 
0x60, 0x40, 
};