#define noname_width 16
#define noname_height 16
static char noname_bits[] = {
0x00, 0x00, 
0xEE, 0xFF, 
0x00, 0x04, 
0xDF, 0x75, 
0x40, 0x55, 
0xCE, 0x75, 
0x00, 0x04, 
0xC0, 0x7F, 
0x0E, 0x04, 
0x00, 0x04, 
0xC0, 0x75, 
0x4E, 0x55, 
0xCA, 0x75, 
0x0A, 0x04, 
0xEA, 0xFF, 
0x0E, 0x00, 
};