#define noname_width 16
#define noname_height 16
static char noname_bits[] = {
0x00, 0x60, 
0x1E, 0x3E, 
0xD2, 0x0B, 
0x52, 0x78, 
0x52, 0x08, 
0x52, 0xFF, 
0x5E, 0x89, 
0x48, 0x39, 
0x4A, 0x8D, 
0x5A, 0xF9, 
0x4A, 0x01, 
0x4A, 0x29, 
0x4A, 0x29, 
0x5A, 0xA9, 
0xAE, 0xAC, 
0x03, 0xC6, 
};