#define noname_width 16
#define noname_height 16
static char noname_bits[] = {
0x08, 0x08, 
0x1C, 0x08, 
0xB4, 0xFF, 
0x26, 0x14, 
0x02, 0x22, 
0xBF, 0xC1, 
0x08, 0x3E, 
0x08, 0x00, 
0xBF, 0xFF, 
0x08, 0x04, 
0x29, 0x02, 
0x2B, 0x7F, 
0x0A, 0x40, 
0x38, 0x40, 
0x0E, 0x60, 
0x03, 0x38, 
};