#define noname_width 16
#define noname_height 16
static char noname_bits[] = {
0x08, 0x70, 
0x1C, 0x1F, 
0x34, 0x09, 
0x66, 0x09, 
0x02, 0xFF, 
0x3F, 0x11, 
0x08, 0x11, 
0x08, 0xA7, 
0xBF, 0xC1, 
0x08, 0x00, 
0x29, 0x7F, 
0x2B, 0x41, 
0x0A, 0x41, 
0x38, 0x41, 
0x0E, 0x41, 
0x03, 0x7F, 
};