#define noname_width 16
#define noname_height 16
static char noname_bits[] = {
0x84, 0x00, 
0x84, 0x00, 
0xC4, 0xFF, 
0x5F, 0x80, 
0x64, 0x8F, 
0x04, 0x80, 
0x84, 0xDF, 
0x1C, 0x40, 
0x87, 0x70, 
0x60, 0x03, 
0x18, 0x1C, 
0xE7, 0xE7, 
0x80, 0x00, 
0xFC, 0x3F, 
0x90, 0x08, 
0xFF, 0xFF, 
};