#define noname_width 16
#define noname_height 16
static char noname_bits[] = {
0x04, 0x11, 
0x0E, 0x11, 
0xDA, 0x17, 
0x13, 0xF9, 
0xC0, 0xAF, 
0x5F, 0x25, 
0x44, 0x25, 
0x44, 0x25, 
0xDF, 0x27, 
0x04, 0x21, 
0x15, 0x71, 
0x95, 0x53, 
0x85, 0x55, 
0x5C, 0xD9, 
0x26, 0x89, 
0x03, 0x89, 
};