#define noname_width 16
#define noname_height 16
static char noname_bits[] = {
0x08, 0x00, 
0x9C, 0xF7, 
0xB4, 0x94, 
0xA6, 0xF7, 
0x82, 0x94, 
0xBF, 0xF7, 
0x88, 0x80, 
0x88, 0xBE, 
0xBF, 0xA2, 
0x88, 0xBE, 
0xA9, 0xA2, 
0xAB, 0xBE, 
0x8A, 0xA2, 
0xB8, 0xB2, 
0x8E, 0x80, 
0x83, 0xC0, 
};