#define noname_width 16
#define noname_height 16
static char noname_bits[] = {
0x00, 0x04, 
0xBE, 0xFF, 
0x22, 0x02, 
0x12, 0x7F, 
0x8A, 0x08, 
0x12, 0xFF, 
0x22, 0x22, 
0x22, 0x3E, 
0x22, 0x22, 
0x3A, 0x3E, 
0x82, 0x22, 
0xE2, 0x33, 
0x38, 0x0E, 
0x8F, 0xF8, 
0x88, 0x22, 
0xE6, 0x44, 
};