#define noname_width 16
#define noname_height 16
static char noname_bits[] = {
0x14, 0x2A, 
0x14, 0x2A, 
0x7F, 0xFF, 
0x14, 0x2A, 
0x14, 0x2A, 
0x1C, 0x3A, 
0x08, 0x02, 
0x3E, 0x7E, 
0x2A, 0x08, 
0xAA, 0xFF, 
0x3E, 0x2A, 
0x08, 0x2A, 
0x7F, 0x6B, 
0x08, 0x49, 
0x88, 0xC9, 
0x08, 0x08, 
};