#define noname_width 16
#define noname_height 16
static char noname_bits[] = {
0x00, 0x00, 
0xFE, 0xFE, 
0x82, 0x10, 
0xFE, 0x7C, 
0x82, 0x44, 
0xFE, 0x44, 
0x10, 0x7C, 
0xFF, 0x45, 
0x00, 0x44, 
0xFE, 0x7C, 
0x82, 0x44, 
0xFE, 0x44, 
0x54, 0x7C, 
0xD6, 0x28, 
0x93, 0x6D, 
0x18, 0xC6, 
};