#define noname_width 16
#define noname_height 16
static char noname_bits[] = {
0x08, 0x08, 
0x1C, 0x08, 
0xB4, 0xFF, 
0xA6, 0x08, 
0x9A, 0x7E, 
0x83, 0x48, 
0xBE, 0xFF, 
0xA2, 0x48, 
0xBE, 0x48, 
0xA2, 0x7E, 
0xBE, 0x08, 
0x82, 0x7E, 
0xBE, 0x42, 
0x82, 0x42, 
0x5E, 0x42, 
0x02, 0x7E, 
};