#define noname_width 16
#define noname_height 16
static char noname_bits[] = {
0x00, 0x12, 
0x3E, 0x12, 
0x22, 0x12, 
0xBA, 0x12, 
0xAA, 0x12, 
0xAA, 0xD2, 
0xFF, 0x7E, 
0x81, 0x12, 
0xBE, 0x12, 
0xA2, 0x12, 
0xBE, 0x12, 
0xA2, 0x12, 
0xBE, 0x12, 
0xA2, 0x9E, 
0xA2, 0x93, 
0xF2, 0xE0, 
};