#define noname_width 16
#define noname_height 16
static char noname_bits[] = {
0x04, 0x01, 
0x3C, 0x7D, 
0x26, 0x41, 
0x92, 0x41, 
0xBF, 0xFE, 
0xAA, 0x04, 
0xEA, 0x04, 
0xBE, 0x7C, 
0xAA, 0x12, 
0xAA, 0x10, 
0xBE, 0xFF, 
0x80, 0x10, 
0xAA, 0x38, 
0xAA, 0x28, 
0xAB, 0x6C, 
0x81, 0xC6, 
};