#define noname_width 16
#define noname_height 16
static char noname_bits[] = {
0x00, 0x10, 
0xFE, 0x08, 
0x82, 0x7E, 
0xFE, 0x42, 
0x82, 0x7E, 
0xFE, 0x42, 
0x04, 0x7E, 
0xFC, 0x02, 
0x96, 0xFE, 
0x93, 0x02, 
0xBA, 0xFE, 
0xEE, 0x80, 
0x82, 0xAA, 
0xBE, 0xAA, 
0x80, 0xC0, 
0xC0, 0x60, 
};