#define noname_width 16
#define noname_height 16
static char noname_bits[] = {
0x00, 0x01, 
0xFC, 0xFF, 
0x44, 0x04, 
0xFC, 0x7F, 
0x44, 0x44, 
0xFC, 0x7F, 
0x14, 0x04, 
0xF4, 0x3C, 
0x14, 0x84, 
0xFC, 0xFC, 
0x24, 0x00, 
0x24, 0x3C, 
0xF6, 0x07, 
0x22, 0x00, 
0x63, 0x60, 
0xC0, 0x3F, 
};