#define noname_width 16
#define noname_height 16
static char noname_bits[] = {
0xA0, 0x07, 
0x10, 0x08, 
0xFC, 0x3F, 
0x47, 0xE8, 
0x20, 0x08, 
0x18, 0x0E, 
0x0E, 0x01, 
0xFC, 0xFF, 
0x44, 0x04, 
0xFC, 0x7F, 
0x44, 0x44, 
0xFC, 0x7F, 
0x16, 0x04, 
0xF2, 0x3C, 
0x13, 0x84, 
0xF8, 0xFD, 
};