#define noname_width 16
#define noname_height 16
static char noname_bits[] = {
0x10, 0x10, 
0xFF, 0x11, 
0x10, 0xFE, 
0xFE, 0x10, 
0x44, 0x7E, 
0x7C, 0x44, 
0x28, 0x38, 
0xFF, 0xC6, 
0xC8, 0x0B, 
0x70, 0x2E, 
0xDC, 0x3B, 
0xF7, 0xEF, 
0x10, 0x08, 
0xF0, 0x0F, 
0x40, 0x02, 
0xFC, 0x3F, 
};