#define r5929_width 16
#define r5929_height 16
static unsigned char r5929_bits[] = {
   0x08, 0x00, 0x08, 0x00, 0x08, 0x00, 0x08, 0x00, 0x7f, 0x00, 0x08, 0x00,
   0x08, 0x00, 0x08, 0x00, 0x78, 0x00, 0x0f, 0x00, 0x08, 0x00, 0x08, 0x00,
   0x08, 0x00, 0x08, 0x00, 0x08, 0x00, 0x0e, 0x00 };
