#define noname_width 16
#define noname_height 16
static char noname_bits[] = {
0x00, 0x00, 
0xFC, 0x03, 
0x10, 0x0C, 
0x10, 0x18, 
0x10, 0x10, 
0x10, 0x30, 
0x10, 0x20, 
0x7C, 0x20, 
0x10, 0x20, 
0x10, 0x30, 
0x10, 0x10, 
0x10, 0x18, 
0x10, 0x0C, 
0xFC, 0x03, 
0x00, 0x00, 
0x00, 0x00, 
};