#define noname_width 16
#define noname_height 16
static char noname_bits[] = {
0x08, 0x60, 
0x08, 0x3F, 
0x7F, 0x01, 
0x08, 0x01, 
0x08, 0xFF, 
0x38, 0x11, 
0x0F, 0x11, 
0x88, 0x11, 
0xCC, 0x10, 
0x00, 0x00, 
0xF8, 0x1F, 
0x00, 0x06, 
0xC0, 0x01, 
0x30, 0x40, 
0x18, 0x60, 
0xF0, 0x3F, 
};