#define noname_width 16
#define noname_height 16
static char noname_bits[] = {
0x10, 0x00, 
0xD0, 0x3F, 
0x58, 0x20, 
0x48, 0x20, 
0x4C, 0x20, 
0x44, 0x20, 
0xC6, 0x3F, 
0x45, 0x00, 
0x44, 0x00, 
0x44, 0x00, 
0xC4, 0x7F, 
0x44, 0x40, 
0x44, 0x40, 
0x44, 0x40, 
0x44, 0x40, 
0xC4, 0x7F, 
};