#define noname_width 16
#define noname_height 16
static char noname_bits[] = {
0x08, 0x00, 
0x08, 0x00, 
0xFC, 0xFF, 
0x26, 0x80, 
0x13, 0x9F, 
0x78, 0x90, 
0x48, 0x90, 
0x78, 0x9F, 
0x48, 0x81, 
0x78, 0x81, 
0x48, 0x9F, 
0x7E, 0x90, 
0x50, 0x90, 
0x58, 0xD0, 
0x4C, 0x58, 
0x60, 0x6E, 
};