#define noname_width 16
#define noname_height 16
static char noname_bits[] = {
0x00, 0x00, 
0xFC, 0xFF, 
0x04, 0x02, 
0x04, 0x02, 
0xE4, 0x3F, 
0x04, 0x02, 
0x04, 0x02, 
0xF4, 0x7F, 
0x04, 0x00, 
0x04, 0x02, 
0x04, 0x02, 
0xE4, 0x3F, 
0x06, 0x02, 
0x02, 0x02, 
0xF3, 0x7F, 
0x00, 0x00, 
};