#define noname_width 16
#define noname_height 16
static char noname_bits[] = {
0x00, 0x00, 
0xFC, 0xFF, 
0x04, 0x00, 
0x04, 0x09, 
0xE4, 0x7F, 
0x04, 0x09, 
0x04, 0x09, 
0xF4, 0xFF, 
0x04, 0x00, 
0xC4, 0x3F, 
0x44, 0x20, 
0x44, 0x20, 
0xC6, 0x3F, 
0x42, 0x20, 
0x43, 0x20, 
0xC0, 0x3F, 
};