#define noname_width 16
#define noname_height 16
static char noname_bits[] = {
0x08, 0x10, 
0x08, 0x10, 
0x08, 0x10, 
0x08, 0x10, 
0x08, 0x18, 
0x0C, 0x08, 
0x04, 0x08, 
0x04, 0x08, 
0x04, 0x0C, 
0x14, 0x24, 
0x16, 0x24, 
0x32, 0x64, 
0x22, 0x46, 
0x22, 0x42, 
0x7A, 0xF2, 
0x4F, 0x9F, 
};