#define noname_width 16
#define noname_height 16
static char noname_bits[] = {
0x80, 0x3F, 
0x00, 0x12, 
0x0F, 0x0C, 
0x89, 0x73, 
0x09, 0x00, 
0xE9, 0xFB, 
0x49, 0x51, 
0x89, 0x20, 
0x69, 0xDB, 
0x09, 0x04, 
0xE9, 0xFF, 
0x0F, 0x15, 
0x80, 0x35, 
0xC0, 0x64, 
0x60, 0xC4, 
0x00, 0x04, 
};