#define noname_width 16
#define noname_height 16
static char noname_bits[] = {
0x08, 0x02, 
0x08, 0x02, 
0x08, 0x02, 
0x08, 0x02, 
0x7F, 0x02, 
0x08, 0x02, 
0x08, 0x02, 
0x08, 0x02, 
0x08, 0x02, 
0x08, 0x02, 
0x78, 0x02, 
0x0F, 0x02, 
0x00, 0x02, 
0x00, 0x82, 
0x00, 0xC6, 
0x00, 0x7C, 
};