#define noname_width 16
#define noname_height 16
static char noname_bits[] = {
0x04, 0x04, 
0x04, 0x04, 
0xC4, 0x7F, 
0x44, 0x40, 
0x5F, 0x40, 
0x84, 0x3F, 
0x04, 0x00, 
0x04, 0x00, 
0xE4, 0xFF, 
0x04, 0x09, 
0x1C, 0x09, 
0x07, 0x09, 
0x80, 0x09, 
0x80, 0x88, 
0xC0, 0xC8, 
0x60, 0x70, 
};