#define noname_width 16
#define noname_height 16
static char noname_bits[] = {
0x04, 0x00, 
0xE4, 0x7F, 
0x04, 0x20, 
0x04, 0x11, 
0x1F, 0x0A, 
0xC4, 0x7F, 
0x44, 0x44, 
0x44, 0x44, 
0xC4, 0x7F, 
0x44, 0x44, 
0x5C, 0x44, 
0xC7, 0x7F, 
0x40, 0x44, 
0x40, 0x44, 
0x40, 0x44, 
0x40, 0x74, 
};