#define noname_width 16
#define noname_height 16
static char noname_bits[] = {
0x10, 0x00, 
0xF0, 0xFE, 
0x10, 0x84, 
0xFF, 0x49, 
0x01, 0x29, 
0x78, 0x10, 
0x82, 0x28, 
0x7D, 0xC5, 
0x82, 0x10, 
0xFF, 0x13, 
0x82, 0x10, 
0xFE, 0xFE, 
0x82, 0x10, 
0xFE, 0x10, 
0x82, 0x10, 
0xFE, 0xFE, 
};