#define noname_width 16
#define noname_height 16
static char noname_bits[] = {
0x80, 0x00, 
0x80, 0x00, 
0x80, 0x00, 
0xFF, 0xFF, 
0x60, 0x06, 
0x30, 0x0C, 
0x18, 0x18, 
0x0C, 0x30, 
0x07, 0xE0, 
0xF8, 0x1F, 
0x00, 0x00, 
0x00, 0x00, 
0x00, 0x00, 
0x00, 0x00, 
0xFE, 0x7F, 
0x00, 0x00, 
};