#define noname_width 16
#define noname_height 16
static char noname_bits[] = {
0x08, 0x04, 
0x08, 0x02, 
0x88, 0x7F, 
0x88, 0x40, 
0xBF, 0x7F, 
0xA4, 0x40, 
0xA4, 0x40, 
0xA4, 0x7F, 
0x26, 0x00, 
0xB2, 0x7F, 
0x12, 0x04, 
0x3F, 0x04, 
0x28, 0x3F, 
0x0C, 0x04, 
0x06, 0x04, 
0xC3, 0xFF, 
};