#define noname_width 16
#define noname_height 16
static char noname_bits[] = {
0x00, 0x00, 
0xC0, 0x1F, 
0xBF, 0x10, 
0x88, 0x10, 
0x88, 0x10, 
0x88, 0x10, 
0xC8, 0x17, 
0x88, 0x10, 
0x88, 0x10, 
0xB8, 0x10, 
0x8E, 0x10, 
0x83, 0x10, 
0x80, 0x10, 
0xC0, 0x90, 
0x40, 0x90, 
0x60, 0xE0, 
};