#define noname_width 16
#define noname_height 16
static char noname_bits[] = {
0x10, 0x09, 
0x10, 0x19, 
0x18, 0x11, 
0x08, 0x7F, 
0xEC, 0x03, 
0x0A, 0x06, 
0x08, 0x4C, 
0x88, 0x78, 
0x80, 0x00, 
0xFC, 0x3F, 
0x84, 0x20, 
0x84, 0x20, 
0x84, 0x20, 
0x84, 0x20, 
0x84, 0x30, 
0x80, 0x00, 
};