#define noname_width 16
#define noname_height 16
static char noname_bits[] = {
0xC0, 0x00, 
0x70, 0x00, 
0x1C, 0x3E, 
0x04, 0x20, 
0x7C, 0x3E, 
0x04, 0x20, 
0x04, 0x20, 
0xFC, 0x3F, 
0x80, 0x00, 
0x80, 0x00, 
0xFC, 0x3F, 
0x84, 0x20, 
0x84, 0x20, 
0x84, 0x20, 
0x84, 0x38, 
0x80, 0x00, 
};