#define noname_width 16
#define noname_height 16
static char noname_bits[] = {
0x88, 0x10, 
0xAC, 0x12, 
0xA4, 0x12, 
0xA6, 0xFA, 
0xE3, 0x4B, 
0x08, 0x4C, 
0xEC, 0x53, 
0x84, 0x50, 
0x86, 0x50, 
0xE7, 0x73, 
0xA4, 0x22, 
0xA4, 0x22, 
0xA4, 0x72, 
0xA4, 0x52, 
0x84, 0xD8, 
0x84, 0x88, 
};