#define noname_width 16
#define noname_height 16
static char noname_bits[] = {
0x00, 0x01, 
0xFC, 0xFF, 
0x04, 0x02, 
0x84, 0x02, 
0x64, 0x3A, 
0x24, 0x22, 
0xE4, 0x3A, 
0x24, 0x22, 
0xE4, 0x3F, 
0x04, 0x02, 
0xF4, 0x3F, 
0x44, 0x10, 
0x86, 0x08, 
0x02, 0x07, 
0xC3, 0x1D, 
0x78, 0xF0, 
};