#define noname_width 16
#define noname_height 16
static char noname_bits[] = {
0x08, 0x04, 
0x88, 0x04, 
0x88, 0x04, 
0x8A, 0x7F, 
0x5A, 0x04, 
0x2A, 0x04, 
0x2B, 0x04, 
0xC9, 0xFF, 
0x08, 0x04, 
0x08, 0x00, 
0x88, 0x7F, 
0x88, 0x40, 
0x88, 0x40, 
0x88, 0x40, 
0x88, 0x40, 
0x88, 0x7F, 
};