#define noname_width 16
#define noname_height 16
static char noname_bits[] = {
0x08, 0x08, 
0x08, 0x08, 
0x88, 0xFF, 
0x8A, 0x92, 
0x9A, 0x92, 
0x2A, 0x13, 
0xAB, 0xF1, 
0x09, 0x00, 
0x08, 0x00, 
0x08, 0x7F, 
0x08, 0x08, 
0x08, 0x08, 
0x08, 0x08, 
0x08, 0x08, 
0x88, 0xFF, 
0x08, 0x00, 
};