#define noname_width 16
#define noname_height 16
static char noname_bits[] = {
0x04, 0x00, 
0xE4, 0xFF, 
0x24, 0x04, 
0x25, 0x04, 
0xED, 0xFF, 
0xB5, 0x24, 
0xA5, 0x24, 
0xA5, 0x24, 
0x64, 0x55, 
0x64, 0x95, 
0x24, 0x0A, 
0x24, 0x0A, 
0x24, 0x31, 
0xE4, 0xC0, 
0x24, 0x00, 
0xE4, 0xFF, 
};