#define noname_width 16
#define noname_height 16
static char noname_bits[] = {
0x08, 0x08, 
0x08, 0x08, 
0x88, 0xFF, 
0x8A, 0x80, 
0x9A, 0xA2, 
0x2A, 0x63, 
0xAB, 0xC9, 
0x09, 0x1C, 
0x08, 0x36, 
0x08, 0x63, 
0x88, 0xC1, 
0x08, 0x7F, 
0x08, 0x41, 
0x08, 0x41, 
0x08, 0x41, 
0x08, 0x7F, 
};