#define noname_width 16
#define noname_height 16
static char noname_bits[] = {
0x00, 0x14, 
0xFC, 0x7F, 
0x44, 0x04, 
0xC4, 0x05, 
0x44, 0x24, 
0xFC, 0x2D, 
0x44, 0x28, 
0x54, 0x19, 
0x4C, 0x55, 
0x64, 0x74, 
0x02, 0x24, 
0x80, 0x01, 
0x24, 0x63, 
0x26, 0xD2, 
0x62, 0x98, 
0xC3, 0x0F, 
};