#define noname_width 16
#define noname_height 16
static char noname_bits[] = {
0x08, 0x00, 
0x88, 0xFF, 
0x08, 0x08, 
0x08, 0x08, 
0x3F, 0x08, 
0x08, 0x08, 
0x08, 0x08, 
0x88, 0xFF, 
0x38, 0x08, 
0x0F, 0x08, 
0x08, 0x08, 
0x08, 0x08, 
0x08, 0x08, 
0x08, 0x08, 
0x08, 0x08, 
0x0E, 0x0E, 
};