#define noname_width 16
#define noname_height 16
static char noname_bits[] = {
0x08, 0x1C, 
0x08, 0x10, 
0x08, 0x33, 
0x88, 0x61, 
0xFF, 0xC0, 
0x88, 0x7F, 
0x88, 0x40, 
0x88, 0x40, 
0xB8, 0x40, 
0x8F, 0x7F, 
0x08, 0x12, 
0x08, 0x12, 
0x08, 0x12, 
0x08, 0x93, 
0x08, 0x91, 
0xCE, 0xE1, 
};