#define noname_width 16
#define noname_height 16
static char noname_bits[] = {
0x04, 0x60, 
0x04, 0x3C, 
0xC4, 0x27, 
0x04, 0x62, 
0x9F, 0xC6, 
0xC4, 0x84, 
0x44, 0x00, 
0x04, 0x20, 
0xDC, 0xFF, 
0x07, 0x20, 
0x84, 0x21, 
0x04, 0x23, 
0x04, 0x22, 
0x04, 0x20, 
0x04, 0x20, 
0x06, 0x38, 
};