#define noname_width 16
#define noname_height 16
static char noname_bits[] = {
0x04, 0x00, 
0xC4, 0xF7, 
0x44, 0x92, 
0x44, 0x92, 
0x5F, 0x92, 
0x44, 0x52, 
0xF4, 0x57, 
0x84, 0x52, 
0x9C, 0x92, 
0x87, 0x92, 
0xC4, 0x92, 
0x44, 0x92, 
0x64, 0x92, 
0x34, 0xD2, 
0x04, 0x12, 
0x86, 0x13, 
};