#define noname_width 16
#define noname_height 16
static char noname_bits[] = {
0x00, 0x08, 
0x3E, 0x08, 
0xA2, 0xFF, 
0x22, 0x00, 
0x22, 0x7F, 
0x3E, 0x41, 
0x22, 0x7F, 
0x22, 0x00, 
0x22, 0x7F, 
0x3E, 0x20, 
0x22, 0x10, 
0xA2, 0xFF, 
0x22, 0x08, 
0x22, 0x08, 
0x23, 0x08, 
0x39, 0x0E, 
};