#define noname_width 16
#define noname_height 16
static char noname_bits[] = {
0x08, 0x00, 
0x08, 0x1E, 
0x08, 0x10, 
0x3F, 0x10, 
0x08, 0x11, 
0x08, 0x11, 
0x1C, 0x11, 
0x2C, 0x11, 
0x0C, 0x11, 
0x0A, 0x11, 
0x0A, 0x11, 
0x09, 0x11, 
0x08, 0x31, 
0x88, 0x21, 
0x88, 0x60, 
0xC8, 0xC0, 
};