#define noname_width 16
#define noname_height 16
static char noname_bits[] = {
0x08, 0x00, 
0x08, 0x7F, 
0x08, 0x08, 
0x7F, 0x08, 
0x08, 0x08, 
0x08, 0x08, 
0x1C, 0x08, 
0xAC, 0xFF, 
0x4C, 0x08, 
0x0A, 0x08, 
0x0A, 0x08, 
0x09, 0x08, 
0x08, 0x08, 
0x08, 0x08, 
0x08, 0x08, 
0x08, 0x0E, 
};