#define noname_width 16
#define noname_height 16
static char noname_bits[] = {
0x08, 0x00, 
0x88, 0x7F, 
0x08, 0x04, 
0x3F, 0x25, 
0x88, 0x65, 
0x88, 0x44, 
0x9C, 0x44, 
0x2C, 0x04, 
0xCC, 0xFF, 
0x0A, 0x04, 
0x0A, 0x04, 
0x09, 0x04, 
0x08, 0x04, 
0x08, 0x04, 
0x08, 0x04, 
0x08, 0x04, 
};