#define noname_width 16
#define noname_height 16
static char noname_bits[] = {
0x08, 0x04, 
0x88, 0x44, 
0x88, 0x65, 
0x3F, 0x25, 
0x08, 0x25, 
0x08, 0x04, 
0x1C, 0x04, 
0xEC, 0xFF, 
0x0C, 0x12, 
0x0A, 0x12, 
0x0A, 0x12, 
0x09, 0x12, 
0x08, 0x13, 
0x08, 0x91, 
0x88, 0x91, 
0xC8, 0xE0, 
};