#define noname_width 16
#define noname_height 16
static char noname_bits[] = {
0x08, 0x00, 
0x88, 0x3F, 
0x08, 0x24, 
0x3F, 0xE4, 
0x08, 0x86, 
0x08, 0x82, 
0x1C, 0xC3, 
0xAC, 0x75, 
0x0C, 0x04, 
0xCA, 0xFF, 
0x0A, 0x15, 
0x09, 0x35, 
0x88, 0x65, 
0xC8, 0xC4, 
0x08, 0x04, 
0x08, 0x04, 
};