#define noname_width 16
#define noname_height 16
static char noname_bits[] = {
0x08, 0x04, 
0x08, 0x04, 
0xC8, 0x7F, 
0xBF, 0x20, 
0x88, 0x31, 
0x08, 0x11, 
0x1C, 0x11, 
0xEC, 0xFF, 
0x2C, 0x00, 
0x0A, 0x00, 
0x8A, 0x3F, 
0x89, 0x20, 
0x88, 0x20, 
0x88, 0x20, 
0x88, 0x20, 
0x88, 0x3F, 
};