#define noname_width 16
#define noname_height 16
static char noname_bits[] = {
0x84, 0x08, 
0x84, 0x08, 
0x84, 0xFC, 
0x5F, 0x44, 
0x44, 0x2A, 
0x64, 0x11, 
0x44, 0x29, 
0x4E, 0xC7, 
0x56, 0x11, 
0x55, 0x11, 
0x45, 0xFF, 
0x44, 0x55, 
0x44, 0x55, 
0x44, 0xD6, 
0x44, 0x92, 
0x44, 0x10, 
};