#define noname_width 16
#define noname_height 16
static char noname_bits[] = {
0x04, 0x41, 
0x84, 0x40, 
0xE4, 0x57, 
0xBF, 0x64, 
0xA4, 0x44, 
0xE4, 0x57, 
0xA4, 0x64, 
0xAE, 0x44, 
0xF6, 0xC7, 
0x55, 0x79, 
0x45, 0x45, 
0x44, 0x55, 
0x44, 0x5F, 
0x64, 0x81, 
0x24, 0xC3, 
0x34, 0x7E, 
};