#define noname_width 16
#define noname_height 16
static char noname_bits[] = {
0x00, 0x09, 
0x06, 0x09, 
0x2C, 0x49, 
0x68, 0x69, 
0x40, 0x39, 
0x43, 0x09, 
0x06, 0x09, 
0x04, 0x09, 
0x00, 0x39, 
0xC8, 0x69, 
0x68, 0x49, 
0x0C, 0x09, 
0x84, 0x09, 
0x86, 0x88, 
0xC2, 0xC8, 
0x63, 0x70, 
};