#define noname_width 16
#define noname_height 16
static char noname_bits[] = {
0x00, 0x0E, 
0x06, 0x08, 
0x8C, 0x19, 
0xC8, 0x30, 
0x60, 0x60, 
0xC3, 0x3F, 
0x46, 0x20, 
0x44, 0x20, 
0x40, 0x20, 
0xC8, 0x3F, 
0x08, 0x09, 
0x0C, 0x09, 
0x04, 0x09, 
0x86, 0x89, 
0xC2, 0xC8, 
0x73, 0x70, 
};