#define noname_width 16
#define noname_height 16
static char noname_bits[] = {
0x00, 0x02, 
0x06, 0x02, 
0xEC, 0x7F, 
0x08, 0x09, 
0xC0, 0x30, 
0x73, 0xE2, 
0x06, 0x02, 
0xC4, 0x1F, 
0x00, 0x02, 
0x88, 0x12, 
0x88, 0x10, 
0xEC, 0x7F, 
0x84, 0x10, 
0xC6, 0x10, 
0x42, 0x10, 
0x63, 0x10, 
};