#define noname_width 16
#define noname_height 16
static char noname_bits[] = {
0x80, 0x60, 
0x86, 0x30, 
0x8C, 0x1C, 
0xA8, 0x10, 
0xA0, 0x11, 
0xA3, 0x12, 
0xB6, 0xFE, 
0x94, 0x10, 
0x80, 0x10, 
0x88, 0x10, 
0x88, 0x7C, 
0x8C, 0x44, 
0x84, 0x44, 
0x86, 0x44, 
0x82, 0x44, 
0x83, 0x7C, 
};