#define noname_width 16
#define noname_height 16
static char noname_bits[] = {
0x00, 0x04, 
0xE6, 0xFF, 
0x2C, 0x12, 
0xA8, 0x7F, 
0x20, 0x12, 
0x23, 0x1E, 
0x26, 0x00, 
0xE4, 0xFF, 
0x20, 0x04, 
0xA8, 0x7F, 
0xA8, 0x44, 
0xAC, 0x7F, 
0xB4, 0x44, 
0x96, 0x7F, 
0x1A, 0x21, 
0xC3, 0xC0, 
};