#define noname_width 16
#define noname_height 16
static char noname_bits[] = {
0x08, 0x08, 
0x08, 0x08, 
0x08, 0x08, 
0xA8, 0xFF, 
0x2A, 0x22, 
0x2A, 0x22, 
0x0B, 0x22, 
0x09, 0x36, 
0x08, 0x14, 
0x08, 0x1C, 
0x1C, 0x08, 
0x14, 0x1C, 
0x34, 0x14, 
0x26, 0x36, 
0x02, 0x63, 
0x83, 0xC1, 
};