#define noname_width 16
#define noname_height 16
static char noname_bits[] = {
0x08, 0x04, 
0x0A, 0x04, 
0x0A, 0x04, 
0x0A, 0x04, 
0xBE, 0x7F, 
0x0B, 0x44, 
0x09, 0x44, 
0x08, 0x44, 
0x08, 0x44, 
0x38, 0x44, 
0x0F, 0x44, 
0x08, 0x46, 
0x08, 0x62, 
0x08, 0x22, 
0x08, 0x23, 
0x88, 0x39, 
};