#define noname_width 16
#define noname_height 16
static char noname_bits[] = {
0x48, 0x40, 
0x49, 0x70, 
0x4A, 0x1C, 
0x46, 0x04, 
0xF4, 0x05, 
0x46, 0xFC, 
0x45, 0x24, 
0x44, 0x24, 
0xC4, 0x25, 
0x76, 0x24, 
0x45, 0x24, 
0x44, 0x24, 
0x44, 0x26, 
0x44, 0x22, 
0x44, 0x23, 
0x63, 0x20, 
};