#define noname_width 16
#define noname_height 16
static char noname_bits[] = {
0x10, 0x04, 
0xD1, 0xFF, 
0x4A, 0x80, 
0x84, 0x7F, 
0x04, 0x25, 
0xCA, 0x14, 
0x09, 0x0C, 
0x88, 0x7F, 
0xEC, 0x40, 
0x8C, 0x7F, 
0x8A, 0x40, 
0x89, 0x7F, 
0x88, 0x40, 
0x88, 0x7F, 
0x0C, 0x21, 
0xC7, 0xC0, 
};