#define noname_width 16
#define noname_height 16
static char noname_bits[] = {
0x10, 0x00, 
0xD1, 0x7F, 
0x4A, 0x49, 
0xC4, 0x7F, 
0x04, 0x00, 
0x8A, 0x50, 
0x69, 0xF8, 
0x48, 0x2D, 
0x8C, 0x28, 
0x4C, 0x7A, 
0xCA, 0x2B, 
0x89, 0x2A, 
0x88, 0x78, 
0xC8, 0x2A, 
0xAC, 0x2A, 
0x87, 0xF8, 
};