#define noname_width 16
#define noname_height 16
static char noname_bits[] = {
0xE4, 0x79, 
0x24, 0x49, 
0xE5, 0x79, 
0x02, 0x00, 
0xF2, 0xFF, 
0x15, 0x10, 
0xD4, 0x13, 
0x94, 0xF0, 
0xF4, 0x5F, 
0x56, 0x4A, 
0xD5, 0x53, 
0x54, 0x72, 
0xD4, 0x23, 
0x4C, 0x72, 
0xC4, 0x53, 
0x63, 0xDA, 
};