#define noname_width 16
#define noname_height 16
static char noname_bits[] = {
0x00, 0x04, 
0x00, 0x04, 
0x3E, 0x04, 
0x08, 0x04, 
0x08, 0xFC, 
0x08, 0x04, 
0x08, 0x04, 
0x3E, 0x04, 
0x08, 0x04, 
0x88, 0x7F, 
0x88, 0x40, 
0x88, 0x40, 
0xB8, 0x40, 
0x8E, 0x40, 
0x80, 0x40, 
0x80, 0x7F, 
};