#define noname_width 16
#define noname_height 16
static char noname_bits[] = {
0x00, 0x04, 
0xC0, 0x7F, 
0x1F, 0x04, 
0x84, 0x3F, 
0x04, 0x04, 
0xE4, 0xFF, 
0x04, 0x00, 
0x9F, 0x3F, 
0x84, 0x20, 
0x84, 0x24, 
0xE4, 0xFF, 
0x44, 0x20, 
0x5C, 0x24, 
0xC7, 0x7F, 
0x00, 0x10, 
0x00, 0x1C, 
};