#define noname_width 16
#define noname_height 16
static char noname_bits[] = {
0x80, 0xFF, 
0x7F, 0x40, 
0x08, 0x40, 
0x08, 0x40, 
0x08, 0x4F, 
0x08, 0x49, 
0x3C, 0x49, 
0x24, 0x49, 
0x26, 0x49, 
0x25, 0x49, 
0x24, 0x4F, 
0x24, 0x40, 
0x24, 0x40, 
0x3C, 0x40, 
0x00, 0x40, 
0x00, 0x70, 
};