#define noname_width 16
#define noname_height 16
static char noname_bits[] = {
0x00, 0x08, 
0x7F, 0x49, 
0x08, 0x49, 
0x08, 0x7F, 
0x88, 0x00, 
0xC8, 0xFF, 
0xBC, 0x00, 
0xA4, 0x08, 
0xA6, 0x49, 
0xA5, 0x2A, 
0xA4, 0x08, 
0xA4, 0x14, 
0xA4, 0x14, 
0x7C, 0x22, 
0x40, 0x41, 
0xA0, 0x80, 
};