#define noname_width 16
#define noname_height 16
static char noname_bits[] = {
0x40, 0x44, 
0x9F, 0x24, 
0x04, 0x04, 
0xC4, 0x7F, 
0x04, 0x15, 
0x84, 0x35, 
0xDE, 0x64, 
0x72, 0xC4, 
0x93, 0x23, 
0x92, 0x7A, 
0x52, 0x2A, 
0x92, 0x2A, 
0x12, 0xFD, 
0x9E, 0x21, 
0xC0, 0x20, 
0x60, 0x20, 
};