#define noname_width 16
#define noname_height 16
static char noname_bits[] = {
0x04, 0x60, 
0x7C, 0x30, 
0x46, 0x1E, 
0x22, 0x10, 
0xFF, 0x10, 
0x92, 0xFF, 
0x92, 0x10, 
0xFE, 0x10, 
0x92, 0x38, 
0x92, 0x58, 
0xFE, 0xD4, 
0x00, 0x94, 
0xAA, 0x12, 
0xAA, 0x10, 
0xAB, 0x10, 
0x01, 0x10, 
};