#define noname_width 16
#define noname_height 16
static char noname_bits[] = {
0x80, 0x00, 
0x80, 0x00, 
0xFE, 0x7F, 
0x00, 0x08, 
0x10, 0x08, 
0x30, 0x0C, 
0x20, 0x04, 
0xFF, 0xFF, 
0x00, 0x00, 
0x20, 0x04, 
0x20, 0x04, 
0xFF, 0xFF, 
0x20, 0x04, 
0x30, 0x04, 
0x18, 0x04, 
0x0C, 0x04, 
};