#define noname_width 16
#define noname_height 16
static char noname_bits[] = {
0x08, 0x04, 
0x08, 0x04, 
0xC8, 0xFF, 
0x7F, 0x80, 
0x40, 0x80, 
0x12, 0x3F, 
0x12, 0x21, 
0x12, 0x21, 
0x1A, 0x3F, 
0x0A, 0x21, 
0x08, 0x21, 
0x38, 0x3F, 
0x0E, 0x21, 
0x03, 0x21, 
0xC0, 0xFF, 
0x00, 0x00, 
};