#define noname_width 16
#define noname_height 16
static char noname_bits[] = {
0x04, 0x02, 
0x7E, 0xFF, 
0x93, 0x09, 
0x20, 0x10, 
0xFC, 0x7F, 
0x04, 0x40, 
0xFC, 0x7F, 
0x04, 0x00, 
0xF4, 0x7F, 
0x44, 0x20, 
0x24, 0x7E, 
0xF4, 0x43, 
0x06, 0x02, 
0xE2, 0x3F, 
0x03, 0x02, 
0xF8, 0xFF, 
};