#define noname_width 16
#define noname_height 16
static char noname_bits[] = {
0x04, 0x02, 
0x7E, 0xFF, 
0x93, 0x09, 
0x20, 0x10, 
0x08, 0x02, 
0x88, 0x7F, 
0xBF, 0x44, 
0x88, 0x44, 
0x88, 0x7F, 
0x88, 0x44, 
0xB8, 0x7F, 
0x0F, 0x12, 
0x08, 0x11, 
0xC8, 0xFF, 
0x08, 0x10, 
0x0E, 0x10, 
};