#define noname_width 16
#define noname_height 16
static char noname_bits[] = {
0x08, 0x3C, 
0x8C, 0x61, 
0xC6, 0xC0, 
0x63, 0x80, 
0xF6, 0xFF, 
0xD8, 0xA4, 
0x4C, 0x95, 
0x66, 0x84, 
0xFF, 0xFF, 
0x28, 0x00, 
0x88, 0x7F, 
0xAA, 0x40, 
0xAA, 0x7F, 
0xAB, 0x40, 
0x89, 0x40, 
0x88, 0x7F, 
};