#define noname_width 16
#define noname_height 16
static char noname_bits[] = {
0xC8, 0xFB, 
0x0C, 0x00, 
0xC4, 0xFB, 
0x53, 0x8A, 
0x5A, 0xAB, 
0x0C, 0x04, 
0xC4, 0xFF, 
0x52, 0x12, 
0xDF, 0x7F, 
0x54, 0x52, 
0xC4, 0x7F, 
0x55, 0x11, 
0x55, 0x77, 
0x55, 0x11, 
0x24, 0x97, 
0x84, 0xE1, 
};