#define noname_width 16
#define noname_height 16
static char noname_bits[] = {
0x00, 0x00, 
0xFE, 0x7F, 
0x22, 0x42, 
0x22, 0x42, 
0xFE, 0x7F, 
0x00, 0x00, 
0x00, 0x3F, 
0xFC, 0x11, 
0x04, 0x10, 
0x84, 0x10, 
0x84, 0x10, 
0x84, 0x14, 
0x84, 0x34, 
0x86, 0x2F, 
0xF2, 0x68, 
0x03, 0xC0, 
};