#define noname_width 16
#define noname_height 16
static char noname_bits[] = {
0x00, 0x00, 
0x9E, 0x3F, 
0x92, 0x20, 
0x92, 0x20, 
0x92, 0x20, 
0x9E, 0x3F, 
0x92, 0x02, 
0x92, 0x02, 
0x92, 0x32, 
0x9E, 0x1E, 
0x92, 0x02, 
0xD2, 0x02, 
0x52, 0x02, 
0x72, 0x42, 
0x13, 0x66, 
0x19, 0x3C, 
};