#define noname_width 16
#define noname_height 16
static char noname_bits[] = {
0x10, 0x08, 
0x10, 0x08, 
0xFF, 0xFF, 
0x10, 0x08, 
0x90, 0x08, 
0xC0, 0x01, 
0x60, 0x03, 
0x30, 0x0E, 
0x1C, 0x38, 
0x17, 0xE6, 
0x90, 0x03, 
0xF0, 0x00, 
0x10, 0x00, 
0x10, 0x20, 
0x30, 0x30, 
0xE0, 0x1F, 
};