#define noname_width 16
#define noname_height 16
static char noname_bits[] = {
0x10, 0x08, 
0xFF, 0xFF, 
0x10, 0x08, 
0x20, 0x00, 
0xF0, 0x0F, 
0x18, 0x04, 
0x0E, 0x03, 
0xF8, 0x1F, 
0x08, 0x10, 
0xF8, 0x1F, 
0x08, 0x10, 
0xF8, 0x1F, 
0x08, 0x10, 
0xF8, 0x1F, 
0x10, 0x08, 
0x0E, 0x70, 
};