#define noname_width 16
#define noname_height 16
static char noname_bits[] = {
0x20, 0x04, 
0x20, 0x04, 
0xFF, 0xFF, 
0x20, 0x04, 
0x10, 0x20, 
0xFE, 0x20, 
0x10, 0x20, 
0x10, 0xFE, 
0xFF, 0x21, 
0x00, 0x22, 
0x10, 0x26, 
0xFE, 0x24, 
0x10, 0x20, 
0x10, 0x20, 
0xF0, 0x20, 
0x1F, 0x38, 
};