#define noname_width 16
#define noname_height 16
static char noname_bits[] = {
0x20, 0x04, 
0x20, 0x04, 
0xFF, 0xFF, 
0x20, 0x04, 
0x10, 0x00, 
0x88, 0xFF, 
0x3E, 0x08, 
0x22, 0x08, 
0x22, 0x7F, 
0x3E, 0x49, 
0x02, 0x49, 
0x3E, 0x49, 
0x22, 0x49, 
0x22, 0x49, 
0x22, 0x69, 
0x3E, 0x08, 
};