#define noname_width 16
#define noname_height 16
static char noname_bits[] = {
0x20, 0x04, 
0xFF, 0xFF, 
0x20, 0x04, 
0x08, 0x10, 
0x7F, 0xFE, 
0x08, 0x10, 
0x3E, 0x7C, 
0x08, 0x10, 
0x7E, 0xFE, 
0x0B, 0x10, 
0x00, 0x00, 
0xFC, 0x3F, 
0x00, 0x20, 
0xFF, 0xFF, 
0x00, 0x20, 
0xFC, 0x3F, 
};