#define noname_width 16
#define noname_height 16
static char noname_bits[] = {
0x20, 0x04, 
0xFF, 0xFF, 
0x20, 0x04, 
0xFF, 0xFF, 
0x84, 0x20, 
0xFE, 0x7F, 
0x83, 0xC0, 
0xAA, 0x54, 
0x92, 0x48, 
0xAA, 0x54, 
0x82, 0x40, 
0xAA, 0x54, 
0x92, 0x48, 
0xAA, 0x54, 
0x82, 0x40, 
0x82, 0x70, 
};