#define noname_width 16
#define noname_height 16
static char noname_bits[] = {
0x10, 0x08, 
0xFF, 0xFF, 
0x10, 0x08, 
0xFE, 0x3D, 
0x0A, 0xE4, 
0xFA, 0x02, 
0x26, 0x7C, 
0xFA, 0x48, 
0x52, 0x30, 
0xFE, 0xCD, 
0x00, 0x00, 
0x7F, 0x7F, 
0x48, 0x48, 
0x56, 0x56, 
0x48, 0x48, 
0x66, 0x66, 
};