#define noname_width 16
#define noname_height 16
static char noname_bits[] = {
0x10, 0x08, 
0xFF, 0xFF, 
0x14, 0x08, 
0xFE, 0x05, 
0x03, 0xFE, 
0x7C, 0x23, 
0x54, 0x34, 
0xFF, 0x19, 
0x4A, 0x34, 
0xFE, 0xC3, 
0x50, 0x04, 
0x20, 0x42, 
0xFF, 0xFF, 
0x80, 0x80, 
0x98, 0x18, 
0x8E, 0x70, 
};