#define noname_width 16
#define noname_height 16
static char noname_bits[] = {
0x04, 0x04, 
0x04, 0x04, 
0x04, 0x04, 
0xBF, 0x7F, 
0x25, 0x04, 
0x25, 0x04, 
0x25, 0x04, 
0x25, 0x04, 
0xBF, 0x7F, 
0x04, 0x04, 
0x04, 0x04, 
0x14, 0x04, 
0x14, 0x04, 
0x3E, 0x04, 
0xA3, 0xFF, 
0x00, 0x00, 
};