#define noname_width 16
#define noname_height 16
static char noname_bits[] = {
0x04, 0x00, 
0xC4, 0xFF, 
0x44, 0x80, 
0xDF, 0xBF, 
0x55, 0xA4, 
0x55, 0xA5, 
0x55, 0xA5, 
0x55, 0xAD, 
0x5F, 0x92, 
0x44, 0x96, 
0x44, 0xA9, 
0x54, 0xC9, 
0xD4, 0x84, 
0x5E, 0x80, 
0x53, 0x80, 
0x40, 0xC0, 
};