#define noname_width 16
#define noname_height 16
static char noname_bits[] = {
0x84, 0x38, 
0x84, 0x20, 
0x84, 0x24, 
0xFF, 0x25, 
0x95, 0x66, 
0x95, 0x42, 
0x95, 0xCA, 
0xD5, 0x09, 
0xD5, 0x08, 
0xBF, 0x08, 
0x84, 0x0C, 
0x94, 0x44, 
0x94, 0x44, 
0x9E, 0x74, 
0x93, 0x5C, 
0x80, 0xC6, 
};