#define noname_width 16
#define noname_height 16
static char noname_bits[] = {
0x04, 0x04, 
0x04, 0x04, 
0xC4, 0xFF, 
0x3F, 0x04, 
0xA5, 0x7F, 
0xA5, 0x44, 
0xA5, 0x7F, 
0xA5, 0x44, 
0xBF, 0x44, 
0x84, 0x7F, 
0x04, 0x15, 
0x14, 0x15, 
0x14, 0x35, 
0xBE, 0x65, 
0xA3, 0xC4, 
0x00, 0x04, 
};