#define noname_width 16
#define noname_height 16
static char noname_bits[] = {
0x04, 0x02, 
0x04, 0x22, 
0x84, 0x2F, 
0x3F, 0x12, 
0xE5, 0xFF, 
0x25, 0x04, 
0x25, 0x33, 
0xE5, 0x0E, 
0x3F, 0x82, 
0x04, 0xFC, 
0x04, 0x00, 
0x94, 0x3F, 
0x94, 0x20, 
0xBE, 0x3F, 
0xA3, 0x20, 
0x80, 0x3F, 
};