#define noname_width 16
#define noname_height 16
static char noname_bits[] = {
0x48, 0x02, 
0x4C, 0xF2, 
0x46, 0x02, 
0x43, 0x02, 
0xF0, 0x0F, 
0x48, 0x02, 
0x4C, 0xF2, 
0x46, 0x42, 
0x47, 0x42, 
0x44, 0x42, 
0xF4, 0x4F, 
0x04, 0x40, 
0x44, 0x42, 
0x64, 0x46, 
0x24, 0x44, 
0x34, 0x6C, 
};