#define noname_width 16
#define noname_height 16
static char noname_bits[] = {
0x08, 0x00, 
0x08, 0x3F, 
0x08, 0x21, 
0x3F, 0x21, 
0x20, 0x21, 
0xB0, 0xFF, 
0x18, 0x21, 
0x08, 0x21, 
0x2C, 0x21, 
0x9E, 0xFF, 
0x2B, 0x21, 
0x08, 0x21, 
0x08, 0x21, 
0x08, 0x21, 
0x08, 0x21, 
0x08, 0x39, 
};