#define noname_width 16
#define noname_height 16
static char noname_bits[] = {
0x08, 0x08, 
0x88, 0x88, 
0x88, 0x88, 
0xBF, 0x88, 
0xA0, 0xFF, 
0x30, 0x00, 
0x98, 0xFF, 
0x08, 0x08, 
0x2C, 0x04, 
0x9E, 0xFF, 
0xAB, 0x92, 
0x88, 0x92, 
0x88, 0x92, 
0x88, 0x92, 
0x88, 0x92, 
0x88, 0xD2, 
};