#define noname_width 16
#define noname_height 16
static char noname_bits[] = {
0x00, 0x40, 
0xBE, 0x4F, 
0x00, 0x48, 
0x7F, 0x48, 
0x00, 0x48, 
0x3E, 0x4F, 
0x00, 0x41, 
0x00, 0x41, 
0x3E, 0x41, 
0x00, 0x4F, 
0x00, 0x48, 
0x3E, 0x48, 
0x22, 0x4C, 
0x22, 0x44, 
0x22, 0x46, 
0xBE, 0x43, 
};