#define noname_width 16
#define noname_height 16
static char noname_bits[] = {
0x00, 0x04, 
0x3E, 0x04, 
0x00, 0x7C, 
0x7F, 0x46, 
0x00, 0x62, 
0x3E, 0x27, 
0x80, 0x35, 
0x00, 0x18, 
0x3E, 0x08, 
0x00, 0xFC, 
0x00, 0x87, 
0x3E, 0x84, 
0x22, 0x84, 
0x22, 0x84, 
0x22, 0x84, 
0x3E, 0xFC, 
};