#define noname_width 16
#define noname_height 16
static char noname_bits[] = {
0x00, 0x04, 
0x1E, 0x7C, 
0x00, 0x04, 
0xBF, 0xFF, 
0x80, 0x80, 
0x9E, 0x44, 
0x80, 0x1C, 
0x80, 0x07, 
0x9E, 0x44, 
0x80, 0x78, 
0x80, 0x00, 
0x9E, 0x14, 
0xD2, 0x14, 
0x52, 0x94, 
0x72, 0x96, 
0x1E, 0xE3, 
};