#define noname_width 16
#define noname_height 16
static char noname_bits[] = {
0x7E, 0x01, 
0x12, 0xFF, 
0x7E, 0x01, 
0xC2, 0x7E, 
0x42, 0x00, 
0x7E, 0x7F, 
0x12, 0x55, 
0x7E, 0x7F, 
0x00, 0x00, 
0xFF, 0xFF, 
0x00, 0x00, 
0xF0, 0x0F, 
0x00, 0x00, 
0xF8, 0x1F, 
0x08, 0x10, 
0xF8, 0x1F, 
};