#define noname_width 16
#define noname_height 16
static char noname_bits[] = {
0x10, 0x08, 
0x8C, 0x88, 
0xD3, 0x88, 
0xA4, 0x88, 
0x90, 0xFF, 
0x0C, 0x00, 
0x93, 0xFF, 
0x10, 0x08, 
0x28, 0x04, 
0xA4, 0xFF, 
0xB3, 0x92, 
0xA8, 0x92, 
0xA4, 0x92, 
0xA3, 0x92, 
0xB0, 0x92, 
0x9C, 0xD2, 
};