#define noname_width 16
#define noname_height 16
static char noname_bits[] = {
0x08, 0x08, 
0x08, 0x08, 
0x7F, 0x08, 
0x88, 0xFF, 
0x3E, 0x00, 
0x2A, 0x7F, 
0x2A, 0x41, 
0x3E, 0x41, 
0x2A, 0x41, 
0x2A, 0x7F, 
0x3E, 0x08, 
0x08, 0x2A, 
0x7F, 0x2A, 
0x08, 0x6B, 
0x88, 0xC9, 
0x08, 0x0C, 
};