#define noname_width 16
#define noname_height 16
static char noname_bits[] = {
0x00, 0x04, 
0x06, 0x06, 
0x0C, 0x02, 
0xC8, 0x7F, 
0x46, 0x40, 
0x4C, 0x40, 
0x48, 0x5F, 
0x40, 0x51, 
0x4F, 0x51, 
0x48, 0x51, 
0x48, 0x5F, 
0x48, 0x40, 
0x48, 0x40, 
0x4C, 0x70, 
0x16, 0x00, 
0xE3, 0xFF, 
};