#define noname_width 16
#define noname_height 16
static char noname_bits[] = {
0xFE, 0x03, 
0x20, 0xF0, 
0xFF, 0x97, 
0x21, 0xD4, 
0xAD, 0x55, 
0x21, 0x54, 
0xAD, 0x95, 
0x21, 0x94, 
0x00, 0x90, 
0x77, 0x97, 
0x55, 0x95, 
0x55, 0x95, 
0x55, 0x95, 
0x55, 0xD5, 
0x77, 0x17, 
0x00, 0x10, 
};