#define noname_width 16
#define noname_height 16
static char noname_bits[] = {
0x12, 0x7C, 
0x12, 0x67, 
0x92, 0x35, 
0x1E, 0x1D, 
0xD0, 0x27, 
0x1F, 0x20, 
0xD2, 0xFF, 
0x13, 0x23, 
0x10, 0x32, 
0xFF, 0xFF, 
0x40, 0x02, 
0xFC, 0x3F, 
0x44, 0x22, 
0x3C, 0x3E, 
0x04, 0x20, 
0xFC, 0x3F, 
};