#define noname_width 16
#define noname_height 16
static char noname_bits[] = {
0x10, 0x40, 
0x38, 0x40, 
0x68, 0x44, 
0xCC, 0x44, 
0x04, 0x44, 
0x7E, 0x44, 
0x13, 0x44, 
0x10, 0x44, 
0xFE, 0x44, 
0x10, 0x44, 
0x52, 0x44, 
0x56, 0x40, 
0x14, 0x40, 
0xF0, 0x40, 
0x1C, 0x40, 
0x07, 0x70, 
};