#define noname_width 16
#define noname_height 16
static char noname_bits[] = {
0x08, 0x04, 
0x1C, 0x7C, 
0x34, 0x46, 
0x26, 0x63, 
0x82, 0x35, 
0x3F, 0x18, 
0x08, 0x0C, 
0x08, 0x17, 
0x3F, 0xF0, 
0x08, 0x98, 
0x29, 0xCC, 
0x2B, 0x57, 
0x0A, 0x60, 
0x38, 0x30, 
0x0E, 0x1C, 
0x83, 0x07, 
};