#define noname_width 16
#define noname_height 16
static char noname_bits[] = {
0x04, 0x40, 
0xCE, 0x2F, 
0x3A, 0x8A, 
0x53, 0x5B, 
0x80, 0x31, 
0xDF, 0x60, 
0x64, 0xC0, 
0xC4, 0x79, 
0x1F, 0x49, 
0x04, 0xCD, 
0xD5, 0x01, 
0x55, 0x7C, 
0xC5, 0x49, 
0x1C, 0x31, 
0x06, 0x49, 
0xC3, 0x84, 
};