#define noname_width 16
#define noname_height 16
static char noname_bits[] = {
0x08, 0x49, 
0x1C, 0x2A, 
0x34, 0x08, 
0xA6, 0xFF, 
0x02, 0x2A, 
0x3F, 0x6B, 
0x88, 0xC9, 
0x08, 0x09, 
0x3F, 0x47, 
0x88, 0xF5, 
0xA9, 0x54, 
0x2B, 0x57, 
0x0A, 0xFE, 
0x38, 0x43, 
0x8E, 0x41, 
0xC3, 0x40, 
};