#define noname_width 16
#define noname_height 16
static char noname_bits[] = {
0x04, 0x11, 
0xEE, 0xFF, 
0x1A, 0x11, 
0xD3, 0x7B, 
0x40, 0x4A, 
0xDF, 0x7B, 
0x44, 0x4A, 
0xC4, 0x7B, 
0x5F, 0x44, 
0xC4, 0x7F, 
0x55, 0x55, 
0x55, 0x5F, 
0x45, 0x55, 
0x5C, 0x5F, 
0x46, 0x4E, 
0xC3, 0x75, 
};