#define noname_width 16
#define noname_height 16
static char noname_bits[] = {
0x00, 0x00, 
0xF8, 0x3F, 
0x08, 0x00, 
0xF8, 0x1F, 
0x08, 0x00, 
0xF8, 0x1F, 
0x08, 0x00, 
0x08, 0x00, 
0xFF, 0xFF, 
0x20, 0x00, 
0x30, 0x10, 
0x10, 0x30, 
0x18, 0x20, 
0x08, 0x7E, 
0xF8, 0xC3, 
0x0E, 0x80, 
};