#define noname_width 16
#define noname_height 16
static char noname_bits[] = {
0x7E, 0x7E, 
0x42, 0x42, 
0x7E, 0x7E, 
0x42, 0x42, 
0x7E, 0x7E, 
0x82, 0x40, 
0xFA, 0x5F, 
0xC2, 0x40, 
0x52, 0x42, 
0x32, 0x4B, 
0xA2, 0x4D, 
0xC2, 0x46, 
0x72, 0x43, 
0x82, 0x45, 
0xE2, 0x4C, 
0x3A, 0x68, 
};