#define noname_width 16
#define noname_height 16
static char noname_bits[] = {
0x00, 0x04, 
0x3E, 0x04, 
0x22, 0x04, 
0x32, 0x04, 
0x92, 0x7F, 
0x1A, 0x44, 
0x0A, 0x44, 
0x12, 0x44, 
0x22, 0x44, 
0x22, 0x44, 
0x22, 0x44, 
0x22, 0x46, 
0x3A, 0x62, 
0x02, 0x22, 
0x02, 0x23, 
0x82, 0x39, 
};