#define noname_width 16
#define noname_height 16
static char noname_bits[] = {
0xFC, 0x3F, 
0x80, 0x00, 
0xFE, 0x7F, 
0x82, 0x40, 
0xBA, 0x5E, 
0x82, 0x40, 
0x38, 0x1E, 
0x80, 0x00, 
0x80, 0x00, 
0xFF, 0xFF, 
0x40, 0x00, 
0xE0, 0x3F, 
0x20, 0x20, 
0x30, 0x30, 
0x18, 0x10, 
0x0E, 0x1C, 
};