#define noname_width 16
#define noname_height 16
static char noname_bits[] = {
0xFC, 0x3F, 
0x80, 0x00, 
0xFE, 0x7F, 
0x82, 0x40, 
0xBA, 0x5E, 
0x82, 0x40, 
0xB8, 0x1E, 
0x00, 0x00, 
0xDE, 0x7B, 
0x10, 0x42, 
0xDE, 0x7B, 
0x42, 0x08, 
0xDE, 0x7B, 
0x10, 0x42, 
0x18, 0x63, 
0xCE, 0x39, 
};