#define noname_width 16
#define noname_height 16
static char noname_bits[] = {
0xFC, 0x3F, 
0x80, 0x00, 
0xFE, 0x7F, 
0x82, 0x40, 
0xBA, 0x5E, 
0x00, 0x00, 
0xF8, 0x0F, 
0x40, 0x02, 
0xFF, 0xFF, 
0x20, 0x41, 
0x10, 0x21, 
0xFE, 0x7F, 
0x12, 0x48, 
0xEE, 0x7F, 
0x22, 0x44, 
0xE2, 0x77, 
};