#define noname_width 16
#define noname_height 16
static char noname_bits[] = {
0x0A, 0x12, 
0x0A, 0x12, 
0xDF, 0xFF, 
0x0A, 0x12, 
0x8A, 0x7F, 
0x0E, 0x12, 
0xC4, 0xFF, 
0x1F, 0x04, 
0x95, 0x7F, 
0x95, 0x44, 
0xDF, 0xFF, 
0x84, 0x44, 
0xDF, 0xFF, 
0x84, 0x40, 
0x84, 0x40, 
0x84, 0x70, 
};