#define noname_width 16
#define noname_height 16
static char noname_bits[] = {
0x72, 0x00, 
0x1E, 0xFF, 
0x82, 0x08, 
0xFC, 0x7E, 
0x00, 0x42, 
0x7D, 0x42, 
0x45, 0x7E, 
0x7D, 0x42, 
0x45, 0x42, 
0x7D, 0x7E, 
0x45, 0x42, 
0x7D, 0x42, 
0x01, 0x7E, 
0xFF, 0x24, 
0x24, 0x66, 
0x43, 0xC3, 
};