#define noname_width 16
#define noname_height 16
static char noname_bits[] = {
0x00, 0x04, 
0xFE, 0x04, 
0x82, 0xFE, 
0xB2, 0x82, 
0x9E, 0x9F, 
0x8A, 0x92, 
0xBE, 0x92, 
0xAA, 0xDE, 
0xAA, 0x42, 
0xBE, 0x62, 
0x8A, 0x02, 
0x8A, 0x86, 
0xAA, 0xFC, 
0xBA, 0x00, 
0xAF, 0x81, 
0x01, 0xFF, 
};