#define noname_width 16
#define noname_height 16
static char noname_bits[] = {
0x20, 0xE0, 
0xB8, 0x3F, 
0x0E, 0x4A, 
0x08, 0xDB, 
0x7F, 0x91, 
0x08, 0x00, 
0x1C, 0x7F, 
0x2A, 0x20, 
0x49, 0x10, 
0x3E, 0x08, 
0xA2, 0xFF, 
0x22, 0x08, 
0x3E, 0x08, 
0x22, 0x08, 
0x22, 0x08, 
0x3E, 0x0E, 
};