#define noname_width 16
#define noname_height 16
static char noname_bits[] = {
0x00, 0x01, 
0x3E, 0x01, 
0x22, 0x7F, 
0x3A, 0x41, 
0x2A, 0x41, 
0xAA, 0x4F, 
0xFF, 0x49, 
0x41, 0x49, 
0x3E, 0x49, 
0x22, 0x4F, 
0x3E, 0x71, 
0x22, 0x01, 
0x3E, 0x01, 
0x22, 0x81, 
0x22, 0xC3, 
0x32, 0x7E, 
};