#define noname_width 16
#define noname_height 16
static char noname_bits[] = {
0x00, 0x28, 
0x3E, 0x48, 
0xA2, 0xFF, 
0x3A, 0x08, 
0x2A, 0x7F, 
0x2A, 0x49, 
0x7F, 0x7F, 
0x41, 0x49, 
0x3E, 0x7F, 
0x22, 0x49, 
0x3E, 0x20, 
0xA2, 0xFF, 
0x3E, 0x22, 
0x22, 0x24, 
0x22, 0x20, 
0x32, 0x38, 
};