#define noname_width 16
#define noname_height 16
static char noname_bits[] = {
0x04, 0x00, 
0x3C, 0x3E, 
0x26, 0x22, 
0x12, 0x3E, 
0x7F, 0x22, 
0x4A, 0x22, 
0x4A, 0x3E, 
0x7E, 0x00, 
0xCA, 0xFF, 
0x4A, 0x08, 
0x7E, 0x09, 
0x00, 0x79, 
0x55, 0x09, 
0x55, 0x0B, 
0x95, 0x0E, 
0x41, 0xF8, 
};