#define noname_width 16
#define noname_height 16
static char noname_bits[] = {
0x04, 0x08, 
0x04, 0x04, 
0x7E, 0x7F, 
0x42, 0x41, 
0x63, 0x7F, 
0x34, 0x41, 
0x18, 0x7F, 
0x3C, 0x01, 
0x66, 0xFF, 
0xC3, 0x01, 
0x00, 0xFF, 
0x3E, 0x80, 
0xA2, 0xAA, 
0xA2, 0xAA, 
0xA2, 0xC0, 
0x3E, 0x60, 
};