#define noname_width 16
#define noname_height 16
static char noname_bits[] = {
0x3F, 0x08, 
0x08, 0xC9, 
0xBF, 0x49, 
0x88, 0x1C, 
0x1C, 0x36, 
0x2A, 0xE3, 
0x89, 0x00, 
0xF0, 0x0F, 
0x10, 0x08, 
0xF0, 0x0F, 
0x10, 0x08, 
0xF0, 0xFF, 
0x10, 0x00, 
0xF4, 0x7F, 
0x96, 0x44, 
0x22, 0x69, 
};