#define noname_width 16
#define noname_height 16
static char noname_bits[] = {
0x10, 0x04, 
0x10, 0x04, 
0xF4, 0x04, 
0x14, 0xFE, 
0x14, 0x02, 
0xFF, 0x03, 
0xAA, 0xFC, 
0xAA, 0x60, 
0xD6, 0x30, 
0x82, 0x18, 
0xFE, 0x0C, 
0xAA, 0x06, 
0xAA, 0x02, 
0xD6, 0x82, 
0x82, 0xC6, 
0xFE, 0x7C, 
};