#define noname_width 16
#define noname_height 16
static char noname_bits[] = {
0x10, 0x00, 
0x10, 0x08, 
0xF4, 0x0C, 
0x14, 0xE6, 
0x14, 0x82, 
0xFF, 0x83, 
0xAA, 0x82, 
0xAA, 0x82, 
0xD6, 0xEE, 
0x82, 0x82, 
0xFE, 0x82, 
0xAA, 0x82, 
0xAA, 0x82, 
0xD6, 0x82, 
0x82, 0xFE, 
0xFE, 0x00, 
};